<svg version="1.1" id="Layer_1" xmlns="http://www.w3.org/2000/svg" xmlns:xlink="http://www.w3.org/1999/xlink" x="0px" y="0px"
	 width="100%" viewBox="0 0 312 265" enable-background="new 0 0 312 265" xml:space="preserve">
<path fill="#000000" opacity="1.000000" stroke="none" 
	d="
M313.000000,88.000000 
	C313.000000,147.294464 313.000000,206.588928 313.000000,265.941711 
	C209.107040,265.941711 105.214035,265.941711 1.000000,265.941711 
	C1.000000,206.979492 1.000000,147.958405 1.380709,88.471840 
	C8.138199,94.690865 14.514980,101.375366 21.031761,108.391479 
	C24.071848,111.495743 26.971935,114.268387 29.927153,117.421051 
	C31.151342,119.542389 32.153492,121.428329 33.516617,123.001488 
	C42.206844,133.030823 50.931355,143.031479 59.748470,152.949219 
	C62.303921,155.823654 65.199867,158.395370 67.958405,161.065521 
	C67.977089,161.025146 67.895172,161.059860 67.940010,161.412231 
	C68.635910,162.213470 69.286972,162.662338 69.954781,163.070099 
	C69.971527,163.028961 69.889236,163.062408 69.936867,163.416245 
	C70.642082,164.221146 71.299667,164.672226 71.982056,165.501740 
	C76.676147,171.609879 81.249786,177.420853 86.035744,183.051361 
	C94.508125,193.018784 103.090919,202.892654 111.661552,212.776169 
	C123.605408,226.549667 135.570999,240.304367 147.560303,254.038284 
	C148.534683,255.154419 149.763245,256.048645 150.925369,257.447937 
	C152.151794,259.511810 153.071075,262.206818 154.565384,262.576355 
	C156.467957,263.046814 159.605728,262.329163 160.876114,260.920135 
	C168.149704,252.852814 175.027237,244.428406 182.415405,236.066391 
	C185.221420,233.031174 187.651215,230.054749 190.442963,227.042328 
	C194.702789,222.953644 198.867966,219.120224 202.423096,214.786362 
	C205.949753,210.487183 208.862000,205.684006 212.440704,201.056488 
	C215.154480,198.197510 217.471237,195.383896 220.059998,192.345306 
	C221.596802,190.753189 222.861588,189.386078 224.463089,187.857834 
	C225.881882,186.177689 226.963943,184.658676 228.351715,183.014221 
	C229.142151,181.944214 229.626892,180.999634 230.070770,180.044525 
	C230.029892,180.033981 230.060654,180.112595 230.436890,180.056488 
	C231.728531,179.288513 232.839859,178.727890 233.525970,177.839035 
	C236.782333,173.620331 239.922775,169.312134 243.416718,164.907349 
	C244.833099,163.563843 245.937241,162.348801 247.414581,161.069763 
	C248.691940,160.301407 249.809280,159.754425 250.464752,158.866501 
	C254.079834,153.969452 257.582153,148.989151 261.370728,143.974609 
	C261.782715,143.623871 261.947083,143.335907 262.430084,142.916199 
	C266.847687,138.225418 270.946625,133.666367 275.367645,128.972198 
	C277.783447,126.671181 279.996521,124.606941 281.946259,122.318359 
	C286.122375,117.416527 290.163788,112.399895 294.257782,107.428123 
	C296.552155,104.641853 298.841248,101.851250 301.459351,98.903717 
	C305.524017,95.163231 309.262024,91.581619 313.000000,88.000000 
z"/>
<path fill="#000000" opacity="1.000000" stroke="none" 
	d="
M1.000000,74.000000 
	C1.000000,49.689823 1.000000,25.379650 1.000000,1.034737 
	C104.877861,1.034737 208.755737,1.034737 313.000000,1.034737 
	C313.000000,25.686352 313.000000,50.374519 312.699829,75.821915 
	C308.303925,72.039116 304.208221,67.497093 299.959717,62.617027 
	C295.387604,56.031376 290.207184,50.518932 284.007385,45.610554 
	C283.327454,44.830090 282.681915,44.396980 282.002014,43.628220 
	C280.991302,42.157349 280.014893,41.022133 278.923981,39.564072 
	C276.899506,36.679810 275.139893,33.987797 273.050262,31.582506 
	C267.674713,25.394913 262.159729,19.328295 256.686279,13.226035 
	C254.489166,10.776520 252.441696,8.813253 248.458679,8.855021 
	C237.751602,8.967299 227.038010,8.101629 216.324554,8.038022 
	C196.880875,7.922582 177.435425,8.107095 157.578217,8.093561 
	C155.774521,8.069256 154.383316,8.117800 152.528992,8.092976 
	C137.710464,8.069351 123.355011,8.119093 108.536438,8.092348 
	C102.990776,8.009144 97.905037,7.889514 92.826797,8.033807 
	C89.197075,8.136942 85.577415,8.594121 81.501305,8.942847 
	C77.714577,8.955952 74.379814,8.919535 70.854614,8.526340 
	C68.773865,8.170517 66.883537,8.171470 64.598976,8.098834 
	C59.051479,8.284004 56.489407,11.325222 53.567616,15.511547 
	C48.006714,23.479168 40.987614,30.422230 34.663605,37.866837 
	C31.295374,41.831913 28.301908,46.126583 24.806662,49.969994 
	C19.063953,56.284729 13.088472,62.390244 7.129669,68.504578 
	C5.218772,70.465347 3.050512,72.175293 1.000000,74.000000 
z"/>
<path fill="#E9FEFF" opacity="1.000000" stroke="none" 
	d="
M1.000000,74.464645 
	C3.050512,72.175293 5.218772,70.465347 7.129669,68.504578 
	C13.088472,62.390244 19.063953,56.284729 24.806662,49.969994 
	C28.301908,46.126583 31.295374,41.831913 34.663605,37.866837 
	C40.987614,30.422230 48.006714,23.479168 53.567616,15.511547 
	C56.489407,11.325222 59.051479,8.284004 64.555878,8.442186 
	C63.350468,11.454533 63.672909,13.610726 65.061203,16.518745 
	C70.955879,28.866095 76.224297,41.510483 81.898911,53.965527 
	C85.431999,61.720215 89.282417,69.330322 92.989944,77.339325 
	C92.996262,78.118713 93.003067,78.564110 93.005562,79.254501 
	C93.001251,79.499504 92.988808,79.989426 92.731392,80.095032 
	C91.985466,80.464798 91.496956,80.728973 90.718399,80.705811 
	C78.207085,80.279701 65.985916,80.060913 53.764500,80.045532 
	C49.482491,80.040146 45.202942,80.677650 40.916836,80.770447 
	C32.946419,80.943016 24.972004,80.931213 16.580444,80.984756 
	C12.890150,80.654869 9.623525,80.169296 6.345552,80.073982 
	C3.979587,80.005180 1.930866,81.494843 3.645261,83.762817 
	C7.961890,89.473282 12.876921,94.727264 17.407026,100.282516 
	C19.224901,102.511765 23.778994,103.673195 20.891762,108.059868 
	C14.514980,101.375366 8.138199,94.690865 1.380709,88.003181 
	C1.000000,83.643097 1.000000,79.286201 1.000000,74.464645 
z"/>
<path fill="#BDEEFC" opacity="1.000000" stroke="none" 
	d="
M300.112488,62.955067 
	C304.208221,67.497093 308.303925,72.039116 312.699829,76.290573 
	C313.000000,78.041664 313.000000,80.083336 312.662170,82.596878 
	C310.920746,83.730827 309.517151,84.392899 308.106049,84.702957 
	C308.744110,82.890182 309.389679,81.429428 309.999237,79.618431 
	C308.787445,77.731049 307.588654,76.210869 306.440430,74.653419 
	C303.595276,70.794235 300.773254,66.918007 298.303619,63.029976 
	C299.147675,62.992573 299.630096,62.973824 300.112488,62.955067 
z"/>
<path fill="#E3F7FC" opacity="1.000000" stroke="none" 
	d="
M308.113556,85.054977 
	C309.517151,84.392899 310.920746,83.730827 312.662170,83.034378 
	C313.000000,84.388893 313.000000,85.777779 313.000000,87.583344 
	C309.262024,91.581619 305.524017,95.163231 301.167969,98.678314 
	C300.331299,97.664345 300.112671,96.716904 299.918030,95.496223 
	C300.261932,94.803970 300.581818,94.384956 301.239136,93.936905 
	C302.030853,93.241280 302.485199,92.574692 302.963959,91.948380 
	C302.988403,91.988647 302.908325,91.938980 303.256409,91.912399 
	C304.037537,91.171844 304.470551,90.457870 305.051758,89.453033 
	C306.171143,87.793114 307.142365,86.424049 308.113556,85.054977 
z"/>
<path fill="#D0F9FE" opacity="1.000000" stroke="none" 
	d="
M21.031761,108.391479 
	C23.778994,103.673195 19.224901,102.511765 17.407026,100.282516 
	C12.876921,94.727264 7.961890,89.473282 3.645261,83.762817 
	C1.930866,81.494843 3.979587,80.005180 6.345552,80.073982 
	C9.623525,80.169296 12.890150,80.654869 16.580540,81.394188 
	C16.166523,90.759163 16.166523,90.759163 18.466177,93.603889 
	C18.672276,92.819214 18.922611,92.240166 18.965425,91.646156 
	C19.483414,84.460167 19.956013,84.010147 27.367596,84.002701 
	C37.931137,83.992088 48.494698,84.000008 59.058247,84.000000 
	C67.457054,84.000000 75.864571,84.210083 84.248947,83.862236 
	C86.537849,83.767265 88.757179,81.995422 91.008446,80.993134 
	C91.496956,80.728973 91.985466,80.464798 92.741058,80.446503 
	C93.683647,81.792397 94.359169,82.892418 95.030746,84.363312 
	C95.037964,85.475235 95.049126,86.216278 95.072052,87.299667 
	C96.031509,88.447067 96.979202,89.252113 97.938469,90.449463 
	C97.974518,91.888138 97.998978,92.934494 98.054535,94.300751 
	C98.705589,95.095306 99.325546,95.569977 99.953186,96.437767 
	C99.984161,97.879150 100.007469,98.927414 100.060410,100.295654 
	C100.705956,101.093689 101.321877,101.571739 101.943726,102.374687 
	C101.954300,103.132805 101.958946,103.566040 101.720589,104.226364 
	C102.970535,107.647560 104.463486,110.841667 105.962646,114.428917 
	C105.995422,115.870216 106.021988,116.918381 106.036308,118.349731 
	C107.358086,121.821587 108.692101,124.910248 110.028549,128.325790 
	C110.040298,129.088409 110.049614,129.524170 110.063965,130.285568 
	C110.712059,131.407990 111.355125,132.204742 112.007149,133.395859 
	C112.038475,134.841766 112.060844,135.893326 112.081482,137.272858 
	C112.729233,138.399857 113.378708,139.198883 114.030869,140.323792 
	C114.045105,141.084061 114.056656,141.518433 114.071907,142.280045 
	C114.725876,143.404205 115.376152,144.201126 116.064377,145.369141 
	C117.045273,148.015503 118.114349,150.247604 118.910118,152.573242 
	C123.227264,165.190125 127.428207,177.846802 131.761520,190.458054 
	C137.804688,208.045441 143.832184,225.639526 150.090881,243.150513 
	C151.565308,247.275742 153.936508,251.080460 155.917511,255.406372 
	C155.938797,256.530426 155.937744,257.280762 155.563583,258.022125 
	C153.751526,257.690796 152.312607,257.368408 150.873688,257.045990 
	C149.763245,256.048645 148.534683,255.154419 147.560303,254.038284 
	C135.570999,240.304367 123.605408,226.549667 111.661552,212.776169 
	C103.090919,202.892654 94.508125,193.018784 86.035744,183.051361 
	C81.249786,177.420853 76.676147,171.609879 71.953857,165.161743 
	C71.230309,163.982986 70.559776,163.522705 69.889236,163.062408 
	C69.889236,163.062408 69.971527,163.028961 69.930511,162.732361 
	C69.224724,161.977127 68.559944,161.518494 67.895172,161.059860 
	C67.895172,161.059860 67.977089,161.025146 67.941055,160.699326 
	C61.238773,151.722061 54.619244,143.034027 47.885033,134.435806 
	C44.875832,130.593674 41.855335,126.714508 38.427631,123.261459 
	C35.967739,120.783394 34.943665,116.008575 29.872025,117.041023 
	C26.971935,114.268387 24.071848,111.495743 21.031761,108.391479 
z"/>
<path fill="#E3F5FC" opacity="1.000000" stroke="none" 
	d="
M299.894043,95.769455 
	C300.112671,96.716904 300.331299,97.664345 300.841309,98.837189 
	C298.841248,101.851250 296.552155,104.641853 294.257782,107.428123 
	C290.163788,112.399895 286.122375,117.416527 281.946259,122.318359 
	C279.996521,124.606941 277.783447,126.671181 275.331818,128.678894 
	C273.836182,129.035751 272.598846,129.405060 271.583313,130.098984 
	C269.928040,131.230072 268.417603,132.573090 266.871765,133.478760 
	C267.319672,132.250229 267.574493,131.225128 268.190430,130.511856 
	C273.062744,124.869766 277.915405,119.206161 282.947510,113.707870 
	C288.500397,107.640579 294.237274,101.741684 299.894043,95.769455 
z"/>
<path fill="#E0FBFE" opacity="1.000000" stroke="none" 
	d="
M29.927155,117.421051 
	C34.943665,116.008575 35.967739,120.783394 38.427631,123.261459 
	C41.855335,126.714508 44.875832,130.593674 47.885033,134.435806 
	C54.619244,143.034027 61.238773,151.722061 67.922363,160.739685 
	C65.199867,158.395370 62.303921,155.823654 59.748470,152.949219 
	C50.931355,143.031479 42.206844,133.030823 33.516617,123.001488 
	C32.153492,121.428329 31.151342,119.542389 29.927155,117.421051 
z"/>
<path fill="#E8F7FD" opacity="1.000000" stroke="none" 
	d="
M150.925369,257.447937 
	C152.312607,257.368408 153.751526,257.690796 155.584213,258.023071 
	C155.977966,258.032990 155.965424,258.065552 156.011917,258.356964 
	C156.715225,258.455902 157.372025,258.263458 158.085205,257.750854 
	C158.789780,256.964874 159.437958,256.499023 160.430954,255.982300 
	C161.526535,254.646637 162.277313,253.361862 163.158264,251.808594 
	C163.890198,250.747360 164.491959,249.954620 165.405762,249.088196 
	C166.157898,248.349411 166.597977,247.684311 167.335480,246.866623 
	C169.811935,243.899506 171.990952,241.084976 174.491913,238.164734 
	C176.220078,236.378067 177.626312,234.697144 179.306000,232.887161 
	C180.300751,232.438614 181.022018,232.119125 181.820007,232.226974 
	C181.944199,233.811264 181.991699,234.968231 182.039215,236.125198 
	C175.027237,244.428406 168.149704,252.852814 160.876114,260.920135 
	C159.605728,262.329163 156.467957,263.046814 154.565384,262.576355 
	C153.071075,262.206818 152.151794,259.511810 150.925369,257.447937 
z"/>
<path fill="#F9FCFF" opacity="1.000000" stroke="none" 
	d="
M212.043716,201.101868 
	C208.862000,205.684006 205.949753,210.487183 202.423096,214.786362 
	C198.867966,219.120224 194.702789,222.953644 190.404190,227.007538 
	C190.003479,227.008759 189.930939,226.933960 189.949829,226.525085 
	C189.923386,225.018845 189.878052,223.921494 189.915924,222.895447 
	C189.999146,222.966782 189.817215,222.844879 190.172028,222.851837 
	C192.357788,220.600082 194.188721,218.341354 196.305481,215.911957 
	C197.014694,214.783569 197.438080,213.825851 197.917435,212.935928 
	C197.973404,213.003708 197.870102,212.866013 198.219452,212.865982 
	C198.991135,212.167664 199.413437,211.469376 199.879364,210.447372 
	C200.590485,209.400192 201.258011,208.676727 202.279724,207.945663 
	C204.024338,206.237000 205.414749,204.535919 206.885010,202.896057 
	C206.964844,202.957275 206.828018,202.809708 207.191772,202.830292 
	C208.028519,201.887527 208.501495,200.924179 209.148376,199.890961 
	C209.322281,199.821075 209.693314,199.767715 210.072754,199.847015 
	C210.965759,199.945587 211.479355,199.964874 212.004486,200.263641 
	C212.025284,200.729370 212.034500,200.915619 212.043716,201.101868 
z"/>
<path fill="#E3F5FC" opacity="1.000000" stroke="none" 
	d="
M247.041351,161.133728 
	C245.937241,162.348801 244.833099,163.563843 243.049683,164.902344 
	C240.892334,165.665054 239.414246,166.304321 237.996552,166.601044 
	C240.755112,162.778641 243.251221,159.115829 246.197723,155.860733 
	C250.903748,150.661865 255.909073,145.733902 260.869598,141.034607 
	C261.338043,141.934509 261.724731,142.491226 262.111450,143.047943 
	C261.947083,143.335907 261.782715,143.623871 261.026184,144.008179 
	C258.838806,145.506577 256.939697,146.684601 255.708435,148.354904 
	C252.656799,152.494629 249.910385,156.859375 247.041351,161.133728 
z"/>
<path fill="#D8F2FD" opacity="1.000000" stroke="none" 
	d="
M228.046005,183.139648 
	C226.963943,184.658676 225.881882,186.177689 224.071350,187.846649 
	C222.560089,187.990555 221.777298,187.984543 220.993240,187.623856 
	C220.971451,186.794876 220.950912,186.320572 221.085144,185.550476 
	C225.410828,180.718628 229.581726,176.182571 233.799408,172.019806 
	C232.584320,174.966263 231.322479,177.539429 230.060638,180.112579 
	C230.060654,180.112595 230.029892,180.033981 229.705475,180.076721 
	C228.936035,181.126190 228.491028,182.132919 228.046005,183.139648 
z"/>
<path fill="#F7FAF9" opacity="1.000000" stroke="none" 
	d="
M230.436890,180.056488 
	C231.322479,177.539429 232.584320,174.966263 233.976822,171.793121 
	C234.657944,170.420441 235.208405,169.647751 236.109772,168.885300 
	C236.959351,168.243057 237.458038,167.590576 237.965240,166.947693 
	C237.973724,166.957291 237.936172,166.943588 237.936172,166.943588 
	C239.414246,166.304321 240.892334,165.665054 242.737457,165.030807 
	C239.922775,169.312134 236.782333,173.620331 233.525970,177.839035 
	C232.839859,178.727890 231.728531,179.288513 230.436890,180.056488 
z"/>
<path fill="#FDFFFE" opacity="1.000000" stroke="none" 
	d="
M247.414581,161.069748 
	C249.910385,156.859375 252.656799,152.494629 255.708435,148.354904 
	C256.939697,146.684601 258.838806,145.506577 260.778564,144.070953 
	C257.582153,148.989151 254.079834,153.969452 250.464752,158.866501 
	C249.809280,159.754425 248.691940,160.301407 247.414581,161.069748 
z"/>
<path fill="#FAFBFD" opacity="1.000000" stroke="none" 
	d="
M262.430054,142.916199 
	C261.724731,142.491226 261.338043,141.934509 260.898560,140.856018 
	C260.845764,140.334244 260.986908,139.996658 261.316162,139.962082 
	C262.081238,139.263580 262.517029,138.599655 262.975494,137.966553 
	C262.998199,137.997375 262.935211,137.953934 263.271790,137.932220 
	C264.042938,137.237793 264.477539,136.565063 264.951996,135.942261 
	C264.991852,135.992203 264.892029,135.912384 265.233765,135.904083 
	C266.012939,135.221664 266.450378,134.547516 266.884796,133.858597 
	C266.881775,133.843811 266.846008,133.826660 266.846008,133.826660 
	C268.417603,132.573090 269.928040,131.230072 271.583313,130.098984 
	C272.598846,129.405060 273.836182,129.035751 275.009735,128.813995 
	C270.946625,133.666367 266.847687,138.225418 262.430054,142.916199 
z"/>
<path fill="#FAFEFE" opacity="1.000000" stroke="none" 
	d="
M182.415405,236.066391 
	C181.991699,234.968231 181.944199,233.811264 181.843765,232.246368 
	C181.790833,231.838455 181.842468,231.861404 182.205612,231.862579 
	C185.022827,230.220474 187.476883,228.577225 189.930939,226.933960 
	C189.930939,226.933960 190.003479,227.008759 190.042252,227.043549 
	C187.651215,230.054749 185.221420,233.031174 182.415405,236.066391 
z"/>
<path fill="#FEFDFC" opacity="1.000000" stroke="none" 
	d="
M212.440704,201.056488 
	C212.034500,200.915619 212.025284,200.729370 212.041199,199.908173 
	C214.366531,196.838470 216.666718,194.403702 219.166290,192.127289 
	C219.506454,192.380539 219.647232,192.475418 219.787994,192.570297 
	C217.471237,195.383896 215.154480,198.197510 212.440704,201.056488 
z"/>
<path fill="#FEFDFC" opacity="1.000000" stroke="none" 
	d="
M220.994507,187.978531 
	C221.777298,187.984543 222.560089,187.990555 223.734619,188.007751 
	C222.861588,189.386078 221.596802,190.753189 220.060013,192.345306 
	C219.647232,192.475418 219.506454,192.380539 219.169662,191.725693 
	C218.912689,190.360031 218.851715,189.554367 218.816162,188.552521 
	C218.841583,188.356354 218.975311,187.984039 219.311890,187.996002 
	C220.097153,187.998169 220.545822,187.988358 220.994507,187.978531 
z"/>
<path fill="#F7FAF9" opacity="1.000000" stroke="none" 
	d="
M228.351715,183.014221 
	C228.491028,182.132919 228.936035,181.126190 229.746338,180.087250 
	C229.626892,180.999634 229.142151,181.944214 228.351715,183.014221 
z"/>
<path fill="#E0FBFE" opacity="1.000000" stroke="none" 
	d="
M69.936867,163.416245 
	C70.559776,163.522705 71.230309,163.982986 71.929047,164.783295 
	C71.299667,164.672226 70.642082,164.221146 69.936867,163.416245 
z"/>
<path fill="#E0FBFE" opacity="1.000000" stroke="none" 
	d="
M67.940010,161.412231 
	C68.559944,161.518494 69.224724,161.977127 69.913773,162.773499 
	C69.286972,162.662338 68.635910,162.213470 67.940010,161.412231 
z"/>
<path fill="#B6F0FE" opacity="1.000000" stroke="none" 
	d="
M95.034691,83.992439 
	C94.359169,82.892418 93.683647,81.792397 92.998474,80.340897 
	C92.988808,79.989426 93.001251,79.499504 93.351196,79.214958 
	C103.181572,68.188354 112.763397,57.533657 122.114304,46.680016 
	C131.741577,35.505600 141.174194,24.162556 150.603043,12.819351 
	C151.690872,11.510637 152.209534,9.728813 152.992096,8.166344 
	C154.383316,8.117800 155.774521,8.069256 157.643890,8.420453 
	C167.831924,20.456154 177.587616,32.054264 187.238770,43.738728 
	C196.890411,55.423771 208.119858,65.867332 217.079071,80.002968 
	C213.470230,80.002968 211.518478,80.002953 209.566727,80.002975 
	C174.605743,80.003410 139.644730,79.988556 104.683853,80.046074 
	C102.785652,80.049202 100.888443,80.657661 98.636765,80.992287 
	C97.200073,81.997627 96.117386,82.995033 95.034691,83.992439 
z"/>
<path fill="#9FE9FE" opacity="1.000000" stroke="none" 
	d="
M98.990776,80.984352 
	C100.888443,80.657661 102.785652,80.049202 104.683853,80.046074 
	C139.644730,79.988556 174.605743,80.003410 209.566727,80.002975 
	C211.518478,80.002953 213.470230,80.002968 217.079071,80.002968 
	C208.119858,65.867332 196.890411,55.423771 187.238770,43.738728 
	C177.587616,32.054264 167.831924,20.456154 158.056366,8.493302 
	C177.435425,8.107095 196.880875,7.922582 216.324554,8.038022 
	C227.038010,8.101629 237.751602,8.967299 248.458679,8.855021 
	C252.441696,8.813253 254.489166,10.776520 256.686279,13.226035 
	C262.159729,19.328295 267.674713,25.394913 273.050262,31.582506 
	C275.139893,33.987797 276.899506,36.679810 278.922211,39.917538 
	C279.016785,41.064812 278.998566,41.535770 278.637573,41.973122 
	C274.862732,38.624649 271.264740,35.462959 268.034180,31.962162 
	C261.826202,25.234819 255.826462,18.315302 249.003342,10.647213 
	C247.785339,13.231494 247.230331,14.333159 246.739197,15.462611 
	C240.943771,28.790497 235.087601,42.092617 229.395050,55.464371 
	C225.797058,63.916073 222.447052,72.473343 218.877167,81.201752 
	C218.572327,81.694061 218.315323,81.886795 217.677216,82.039894 
	C216.900238,82.721870 216.443512,83.362381 215.617752,84.046341 
	C212.638763,84.385384 210.028168,84.915627 207.419052,84.908325 
	C204.974686,84.901497 202.532486,84.047249 200.088333,84.042206 
	C169.017822,83.978111 137.946655,84.072693 106.877335,83.869225 
	C104.242294,83.851974 101.619347,81.989571 98.990776,80.984352 
z"/>
<path fill="#D0F9FE" opacity="1.000000" stroke="none" 
	d="
M152.528992,8.092976 
	C152.209534,9.728813 151.690872,11.510637 150.603043,12.819351 
	C141.174194,24.162556 131.741577,35.505600 122.114304,46.680016 
	C112.763397,57.533657 103.181572,68.188354 93.355515,78.969955 
	C93.003067,78.564110 92.996262,78.118713 93.264572,77.098343 
	C93.614136,75.563148 94.020111,74.476097 93.709137,73.663361 
	C91.708794,68.435280 89.273956,63.356365 87.567238,58.040508 
	C86.759430,55.524445 86.509270,52.352463 87.308678,49.902584 
	C88.710281,45.607227 88.225655,42.557331 84.366272,40.575798 
	C84.076874,42.637856 83.795372,44.643612 83.513878,46.649368 
	C82.979263,46.793694 82.444649,46.938015 81.910027,47.082340 
	C76.826508,35.628262 71.742989,24.174185 66.403282,12.142881 
	C67.697159,11.234231 69.371101,10.058674 71.045044,8.883117 
	C74.379814,8.919535 77.714577,8.955952 81.774033,9.248594 
	C90.668663,9.656829 98.838432,9.850990 107.008827,9.881700 
	C107.670250,9.884186 108.335884,8.766171 108.999565,8.168835 
	C123.355011,8.119093 137.710464,8.069351 152.528992,8.092976 
M111.437202,17.186642 
	C115.295998,18.751707 118.198189,18.058771 120.289932,13.657935 
	C117.395889,13.019249 115.186066,12.339830 112.930748,12.113268 
	C111.771843,11.996849 110.531799,12.688210 109.328423,13.014540 
	C109.791962,14.287601 110.255501,15.560664 111.437202,17.186642 
M120.168999,35.988079 
	C119.975433,38.124184 119.781860,40.260288 119.547783,42.843449 
	C121.307991,41.445984 122.857254,40.654469 123.720764,39.393379 
	C124.426834,38.362232 124.314903,36.770962 124.565620,35.428013 
	C123.210930,35.377213 121.856247,35.326412 120.168999,35.988079 
M107.713959,46.927601 
	C106.871819,47.056175 106.029671,47.184746 105.187531,47.313316 
	C105.495140,48.106750 105.802750,48.900185 106.110359,49.693626 
	C106.708740,49.007668 107.307121,48.321712 107.713959,46.927601 
M113.644150,48.042091 
	C113.891296,48.561359 114.138443,49.080627 114.385590,49.599892 
	C114.801048,49.180515 115.216507,48.761143 115.631966,48.341770 
	C115.111870,48.097649 114.591774,47.853527 113.644150,48.042091 
M106.397797,33.199657 
	C106.787895,33.203911 107.178001,33.208164 107.568092,33.212418 
	C107.569664,33.050545 107.582115,32.747978 107.571228,32.747135 
	C107.183060,32.717102 106.792702,32.715298 106.397797,33.199657 
z"/>
<path fill="#D0F9FF" opacity="1.000000" stroke="none" 
	d="
M70.854614,8.526340 
	C69.371101,10.058674 67.697159,11.234231 66.403282,12.142881 
	C71.742989,24.174185 76.826508,35.628262 81.910027,47.082340 
	C82.444649,46.938015 82.979263,46.793694 83.513878,46.649368 
	C83.795372,44.643612 84.076874,42.637856 84.366272,40.575798 
	C88.225655,42.557331 88.710281,45.607227 87.308678,49.902584 
	C86.509270,52.352463 86.759430,55.524445 87.567238,58.040508 
	C89.273956,63.356365 91.708794,68.435280 93.709137,73.663361 
	C94.020111,74.476097 93.614136,75.563148 93.265060,76.764336 
	C89.282417,69.330322 85.431999,61.720215 81.898911,53.965527 
	C76.224297,41.510483 70.955879,28.866095 65.061203,16.518745 
	C63.672909,13.610726 63.350468,11.454533 64.950119,8.515774 
	C66.883537,8.171470 68.773865,8.170517 70.854614,8.526340 
z"/>
<path fill="#D4FAFD" opacity="1.000000" stroke="none" 
	d="
M108.536438,8.092347 
	C108.335884,8.766171 107.670250,9.884186 107.008827,9.881700 
	C98.838432,9.850990 90.668663,9.656829 82.225998,9.199072 
	C85.577415,8.594121 89.197075,8.136942 92.826797,8.033807 
	C97.905037,7.889514 102.990776,8.009144 108.536438,8.092347 
z"/>
<path fill="#E2F6FE" opacity="1.000000" stroke="none" 
	d="
M299.959717,62.617035 
	C299.630096,62.973824 299.147675,62.992573 298.155396,62.785259 
	C297.082977,62.055641 296.520477,61.552090 295.936096,60.721252 
	C295.273315,59.932224 294.632385,59.470486 293.995728,59.004372 
	C294.000000,59.000000 293.991150,59.008472 293.958801,58.684036 
	C293.276764,57.913849 292.627136,57.468094 291.956665,57.031281 
	C291.935822,57.040226 291.891846,57.051117 291.881470,56.726177 
	C291.237518,55.958614 290.603943,55.515987 289.920319,54.752789 
	C289.242432,53.969414 288.614594,53.506611 287.884338,52.763306 
	C287.184906,51.989658 286.587891,51.496510 285.937927,50.659988 
	C285.244385,48.888916 284.603790,47.461212 283.983002,46.014771 
	C284.002808,45.996037 284.041779,45.957912 284.041779,45.957912 
	C290.207184,50.518932 295.387604,56.031376 299.959717,62.617035 
z"/>
<path fill="#E2F6FE" opacity="1.000000" stroke="none" 
	d="
M278.980347,42.006729 
	C278.998566,41.535770 279.016785,41.064812 279.036743,40.240387 
	C280.014893,41.022133 280.991302,42.157349 281.984253,43.646095 
	C282.000793,43.999630 281.965637,44.035721 281.646057,44.010857 
	C280.544434,43.326237 279.762421,42.666481 278.980347,42.006729 
z"/>
<path fill="#E2F6FE" opacity="1.000000" stroke="none" 
	d="
M282.018555,43.981750 
	C282.681915,44.396980 283.327454,44.830090 284.007385,45.610554 
	C284.041779,45.957912 284.002808,45.996037 283.661926,45.982323 
	C282.869232,45.324310 282.417419,44.680016 281.965637,44.035721 
	C281.965637,44.035721 282.000793,43.999630 282.018555,43.981750 
z"/>
<path fill="#D0F9FF" opacity="1.000000" stroke="none" 
	d="
M90.718399,80.705803 
	C88.757179,81.995422 86.537849,83.767265 84.248947,83.862236 
	C75.864571,84.210083 67.457054,84.000000 59.058247,84.000000 
	C48.494698,84.000008 37.931137,83.992088 27.367596,84.002701 
	C19.956013,84.010147 19.483414,84.460167 18.965425,91.646156 
	C18.922611,92.240166 18.672276,92.819214 18.466177,93.603889 
	C16.166523,90.759163 16.166523,90.759163 16.999348,81.405594 
	C24.972004,80.931213 32.946419,80.943016 40.916836,80.770447 
	C45.202942,80.677650 49.482491,80.040146 53.764500,80.045532 
	C65.985916,80.060913 78.207085,80.279701 90.718399,80.705803 
z"/>
<path fill="#70CEFD" opacity="1.000000" stroke="none" 
	d="
M217.997498,81.998436 
	C218.315323,81.886795 218.572327,81.694061 219.294495,81.154671 
	C222.105194,80.593941 224.389297,80.047661 226.674759,80.041862 
	C254.461487,79.971336 282.248383,79.980331 310.035248,79.968674 
	C309.389679,81.429428 308.744110,82.890182 308.106049,84.702957 
	C307.142365,86.424049 306.171143,87.793114 304.751953,89.563995 
	C303.838776,90.623535 303.373566,91.281258 302.908325,91.938980 
	C302.908325,91.938980 302.988403,91.988647 302.653015,92.004936 
	C301.845612,92.669456 301.373657,93.317696 300.901703,93.965935 
	C300.581818,94.384956 300.261932,94.803970 299.918030,95.496216 
	C294.237274,101.741684 288.500397,107.640579 282.947510,113.707870 
	C277.915405,119.206161 273.062744,124.869766 268.190430,130.511856 
	C267.574493,131.225128 267.319672,132.250229 266.871765,133.478760 
	C266.846008,133.826660 266.881775,133.843811 266.574890,133.918961 
	C265.809357,134.633530 265.350677,135.272949 264.892029,135.912384 
	C264.892029,135.912384 264.991852,135.992203 264.637085,135.995239 
	C263.833282,136.650162 263.384247,137.302048 262.935211,137.953934 
	C262.935211,137.953934 262.998199,137.997375 262.664612,138.026718 
	C261.882996,138.702927 261.434967,139.349808 260.986938,139.996674 
	C260.986908,139.996658 260.845764,140.334244 260.816833,140.512817 
	C255.909073,145.733902 250.903748,150.661865 246.197723,155.860733 
	C243.251221,159.115829 240.755112,162.778641 237.996552,166.601044 
	C237.936172,166.943588 237.973724,166.957291 237.656128,167.003418 
	C236.811966,167.658035 236.285431,168.266556 235.758881,168.875061 
	C235.208405,169.647751 234.657944,170.420441 233.930054,171.419830 
	C229.581726,176.182571 225.410828,180.718628 220.781174,185.646378 
	C219.873398,186.686722 219.424347,187.335373 218.975311,187.984039 
	C218.975311,187.984039 218.841583,188.356354 218.496918,188.656525 
	C215.332611,192.560349 212.512955,196.164032 209.693298,199.767715 
	C209.693314,199.767715 209.322281,199.821075 208.846771,200.002640 
	C207.856842,201.059372 207.342438,201.934540 206.828033,202.809708 
	C206.828018,202.809708 206.964844,202.957275 206.555603,202.946838 
	C204.739410,204.608673 203.332474,206.280975 201.925537,207.953247 
	C201.258011,208.676727 200.590485,209.400192 199.575470,210.530731 
	C198.775360,211.580536 198.322723,212.223267 197.870087,212.865997 
	C197.870102,212.866013 197.973404,213.003708 197.620880,212.975769 
	C196.781082,213.278824 196.293793,213.609833 195.488831,213.996292 
	C194.442886,215.018051 193.714615,215.984344 192.743393,217.188110 
	C191.606033,219.232010 190.711624,221.038437 189.817215,222.844879 
	C189.817215,222.844879 189.999146,222.966782 189.566559,222.916489 
	C186.703461,225.864594 184.272964,228.863007 181.842468,231.861404 
	C181.842468,231.861404 181.790833,231.838455 181.767059,231.819061 
	C181.022018,232.119125 180.300751,232.438614 178.954773,232.911194 
	C176.943359,234.799683 175.556671,236.535065 174.169983,238.270462 
	C171.990952,241.084976 169.811935,243.899506 166.998108,246.899048 
	C165.940125,247.776657 165.516922,248.469269 165.093719,249.161880 
	C164.491959,249.954620 163.890198,250.747360 162.881622,251.873657 
	C161.985382,252.497360 161.496002,252.787521 160.899414,252.800995 
	C160.505325,252.002899 160.218460,251.481491 159.946991,250.563568 
	C160.659698,247.123505 161.356979,244.079971 162.399933,240.962372 
	C163.821014,238.251480 164.896423,235.614670 165.982666,232.583923 
	C166.013687,231.139313 166.033844,230.088623 166.390030,228.990295 
	C167.454865,227.941254 168.183670,226.939880 168.924927,225.571320 
	C168.946411,224.469452 168.955460,223.734756 169.216614,222.835052 
	C169.639755,222.108490 169.810791,221.546936 169.991638,220.595093 
	C171.008194,216.807877 172.014908,213.410950 173.341644,209.966339 
	C174.084457,209.261948 174.507248,208.605225 174.937866,207.623627 
	C174.950836,206.865479 174.956009,206.432220 175.274109,205.844391 
	C176.038406,204.445984 176.489777,203.202133 176.950104,201.552444 
	C177.891479,198.202515 178.765289,195.238327 179.766068,192.317642 
	C185.211533,176.425430 190.757324,160.567261 196.129379,144.650375 
	C199.559052,134.488556 202.747604,124.245369 206.394226,113.966782 
	C207.827271,110.928436 208.910370,107.961975 210.143173,104.649124 
	C210.881958,101.552422 211.471024,98.802109 212.373871,95.992905 
	C213.119980,95.285522 213.552292,94.637032 213.993546,93.595459 
	C214.024216,92.154190 214.045975,91.105988 214.401413,90.003983 
	C215.465851,88.951416 216.196625,87.952652 216.937836,86.585892 
	C216.948547,85.481697 216.948837,84.745491 217.202911,83.844559 
	C217.636948,83.119362 217.817215,82.558899 217.997498,81.998436 
z"/>
<path fill="#88DFFE" opacity="1.000000" stroke="none" 
	d="
M309.999237,79.618439 
	C282.248383,79.980331 254.461487,79.971336 226.674759,80.041862 
	C224.389297,80.047661 222.105194,80.593941 219.403137,80.936188 
	C222.447052,72.473343 225.797058,63.916073 229.395050,55.464371 
	C235.087601,42.092617 240.943771,28.790497 246.739197,15.462611 
	C247.230331,14.333159 247.785339,13.231494 249.003342,10.647213 
	C255.826462,18.315302 261.826202,25.234819 268.034180,31.962162 
	C271.264740,35.462959 274.862732,38.624649 278.637573,41.973122 
	C279.762421,42.666481 280.544434,43.326237 281.646057,44.010857 
	C282.417419,44.680016 282.869232,45.324310 283.642090,46.001053 
	C284.603790,47.461212 285.244385,48.888916 285.702820,50.835266 
	C286.342682,51.917210 287.164734,52.480507 287.986755,53.043800 
	C288.614594,53.506611 289.242432,53.969414 289.967712,55.058094 
	C290.674011,56.139683 291.282928,56.595394 291.891846,57.051113 
	C291.891846,57.051117 291.935822,57.040226 292.002472,57.347900 
	C292.709808,58.106537 293.350494,58.557499 293.991150,59.008469 
	C293.991150,59.008472 294.000000,59.000000 294.033020,59.323288 
	C294.696655,60.113899 295.327301,60.581223 295.957947,61.048542 
	C296.520477,61.552090 297.082977,62.055641 297.793732,62.803909 
	C300.773254,66.918007 303.595276,70.794235 306.440430,74.653419 
	C307.588654,76.210869 308.787445,77.731049 309.999237,79.618439 
z"/>
<path fill="#E3F5FC" opacity="1.000000" stroke="none" 
	d="
M303.256409,91.912407 
	C303.373566,91.281258 303.838776,90.623535 304.603760,89.854858 
	C304.470551,90.457870 304.037537,91.171844 303.256409,91.912407 
z"/>
<path fill="#E3F5FC" opacity="1.000000" stroke="none" 
	d="
M301.239136,93.936897 
	C301.373657,93.317696 301.845612,92.669456 302.628540,91.964661 
	C302.485199,92.574692 302.030853,93.241280 301.239136,93.936897 
z"/>
<path fill="#9EE9FF" opacity="1.000000" stroke="none" 
	d="
M174.961182,205.998947 
	C174.956009,206.432220 174.950836,206.865479 174.625992,207.683563 
	C173.878098,208.716919 173.449860,209.365463 173.021637,210.014023 
	C172.014908,213.410950 171.008194,216.807877 169.703079,220.628845 
	C169.257965,221.701950 169.111237,222.351013 168.964508,223.000076 
	C168.955460,223.734756 168.946411,224.469452 168.594864,225.627930 
	C167.519592,227.047150 166.786804,228.042557 166.054016,229.037964 
	C166.033844,230.088623 166.013687,231.139313 165.633789,232.651184 
	C164.200775,235.753723 163.127518,238.395081 162.054260,241.036438 
	C161.356979,244.079971 160.659698,247.123505 159.620255,250.627350 
	C158.150452,252.402649 157.022812,253.717636 155.895172,255.032623 
	C153.936508,251.080460 151.565308,247.275742 150.090881,243.150513 
	C143.832184,225.639526 137.804688,208.045441 131.761520,190.458054 
	C127.428207,177.846802 123.227264,165.190125 118.910118,152.573242 
	C118.114349,150.247604 117.045273,148.015503 116.298798,145.179352 
	C115.686234,143.729904 114.877220,142.841354 114.068207,141.952805 
	C114.056656,141.518433 114.045105,141.084061 114.264076,140.133209 
	C113.690796,138.726120 112.887009,137.835510 112.083214,136.944885 
	C112.060844,135.893326 112.038475,134.841766 112.003983,133.044785 
	C111.347549,131.519547 110.703239,130.739731 110.058929,129.959915 
	C110.049614,129.524170 110.040298,129.088409 110.272568,128.107376 
	C109.025620,124.363579 107.537086,121.165062 106.048553,117.966545 
	C106.021988,116.918381 105.995422,115.870216 105.973328,114.045044 
	C104.639717,110.178452 103.301659,107.088860 101.963600,103.999268 
	C101.958946,103.566040 101.954300,103.132805 101.925781,102.049248 
	C101.278206,100.924507 100.654488,100.450089 100.030777,99.975677 
	C100.007469,98.927414 99.984161,97.879150 99.932457,96.112503 
	C99.277191,94.923035 98.650314,94.451942 98.023438,93.980858 
	C97.998978,92.934494 97.974518,91.888138 97.930771,90.105103 
	C96.961082,88.564728 96.010681,87.761024 95.060280,86.957321 
	C95.049126,86.216278 95.037964,85.475235 95.030746,84.363312 
	C96.117386,82.995033 97.200073,81.997627 98.636765,80.992287 
	C101.619347,81.989571 104.242294,83.851974 106.877335,83.869225 
	C137.946655,84.072693 169.017822,83.978111 200.088333,84.042206 
	C202.532486,84.047249 204.974686,84.901497 207.419052,84.908325 
	C210.028168,84.915627 212.638763,84.385384 215.858398,84.049454 
	C216.468094,84.009117 216.949127,84.009285 216.949127,84.009285 
	C216.948837,84.745491 216.948547,85.481697 216.604614,86.636902 
	C215.529877,88.056534 214.798798,89.057159 214.067719,90.057785 
	C214.045975,91.105988 214.024216,92.154190 213.672272,93.641708 
	C212.914764,94.737953 212.487427,95.394875 212.060089,96.051796 
	C211.471024,98.802109 210.881958,101.552422 209.780304,104.721458 
	C208.193222,108.106339 207.118744,111.072502 206.044266,114.038658 
	C202.747604,124.245369 199.559052,134.488556 196.129379,144.650375 
	C190.757324,160.567261 185.211533,176.425430 179.766068,192.317642 
	C178.765289,195.238327 177.891479,198.202515 176.633606,201.611038 
	C175.859161,203.383286 175.410172,204.691116 174.961182,205.998947 
z"/>
<path fill="#B6F0FE" opacity="1.000000" stroke="none" 
	d="
M101.720589,104.226364 
	C103.301659,107.088860 104.639717,110.178452 105.967110,113.651917 
	C104.463486,110.841667 102.970535,107.647560 101.720589,104.226364 
z"/>
<path fill="#B6F0FE" opacity="1.000000" stroke="none" 
	d="
M106.036301,118.349731 
	C107.537086,121.165062 109.025620,124.363579 110.270142,127.780502 
	C108.692101,124.910248 107.358086,121.821587 106.036301,118.349731 
z"/>
<path fill="#8AD7FA" opacity="1.000000" stroke="none" 
	d="
M155.917496,255.406372 
	C157.022812,253.717636 158.150452,252.402649 159.604828,251.023865 
	C160.218460,251.481491 160.505325,252.002899 160.781387,253.091675 
	C160.542419,254.450409 160.314270,255.241791 160.086121,256.033173 
	C159.437958,256.499023 158.789780,256.964874 157.741547,257.725830 
	C156.882797,258.035797 156.424118,258.050659 155.965424,258.065552 
	C155.965424,258.065552 155.977966,258.032990 155.957336,258.032043 
	C155.937744,257.280762 155.938797,256.530426 155.917496,255.406372 
z"/>
<path fill="#B6F0FE" opacity="1.000000" stroke="none" 
	d="
M112.081482,137.272858 
	C112.887009,137.835510 113.690796,138.726120 114.261383,139.807327 
	C113.378708,139.198883 112.729233,138.399857 112.081482,137.272858 
z"/>
<path fill="#B6F0FE" opacity="1.000000" stroke="none" 
	d="
M114.071915,142.280045 
	C114.877220,142.841354 115.686234,143.729904 116.260834,144.808258 
	C115.376152,144.201126 114.725876,143.404205 114.071915,142.280045 
z"/>
<path fill="#B6F0FE" opacity="1.000000" stroke="none" 
	d="
M95.072052,87.299667 
	C96.010681,87.761024 96.961082,88.564728 97.919189,89.712799 
	C96.979202,89.252113 96.031509,88.447067 95.072052,87.299667 
z"/>
<path fill="#B6F0FE" opacity="1.000000" stroke="none" 
	d="
M110.063965,130.285568 
	C110.703239,130.739731 111.347549,131.519547 111.995026,132.650436 
	C111.355125,132.204742 110.712059,131.407990 110.063965,130.285568 
z"/>
<path fill="#B6F0FE" opacity="1.000000" stroke="none" 
	d="
M98.054535,94.300751 
	C98.650314,94.451942 99.277191,94.923035 99.924789,95.719391 
	C99.325546,95.569977 98.705589,95.095306 98.054535,94.300751 
z"/>
<path fill="#B6F0FE" opacity="1.000000" stroke="none" 
	d="
M100.060402,100.295654 
	C100.654488,100.450089 101.278206,100.924507 101.919861,101.724358 
	C101.321877,101.571739 100.705956,101.093689 100.060402,100.295654 
z"/>
<path fill="#8AD7FA" opacity="1.000000" stroke="none" 
	d="
M174.491913,238.164734 
	C175.556671,236.535065 176.943359,234.799683 178.681305,233.040253 
	C177.626312,234.697144 176.220078,236.378067 174.491913,238.164734 
z"/>
<path fill="#D0F9FE" opacity="1.000000" stroke="none" 
	d="
M160.430939,255.982300 
	C160.314270,255.241791 160.542419,254.450409 160.888580,253.368347 
	C161.496002,252.787521 161.985382,252.497360 162.751434,252.142151 
	C162.277313,253.361862 161.526535,254.646637 160.430939,255.982300 
z"/>
<path fill="#D0F9FE" opacity="1.000000" stroke="none" 
	d="
M156.011917,258.356964 
	C156.424118,258.050659 156.882797,258.035797 157.685150,258.045959 
	C157.372025,258.263458 156.715225,258.455902 156.011917,258.356964 
z"/>
<path fill="#8AD7FA" opacity="1.000000" stroke="none" 
	d="
M165.405762,249.088196 
	C165.516922,248.469269 165.940125,247.776657 166.700684,247.051636 
	C166.597977,247.684311 166.157898,248.349411 165.405762,249.088196 
z"/>
<path fill="#D1F0FC" opacity="1.000000" stroke="none" 
	d="
M210.072739,199.847015 
	C212.512955,196.164032 215.332611,192.560349 218.471497,188.852692 
	C218.851715,189.554367 218.912689,190.360031 218.970276,191.567322 
	C216.666718,194.403702 214.366531,196.838470 212.029648,199.628708 
	C211.479355,199.964874 210.965759,199.945587 210.072739,199.847015 
z"/>
<path fill="#E8F7FD" opacity="1.000000" stroke="none" 
	d="
M182.205612,231.862579 
	C184.272964,228.863007 186.703461,225.864594 189.483337,222.845154 
	C189.878052,223.921494 189.923386,225.018845 189.949829,226.525085 
	C187.476883,228.577225 185.022827,230.220474 182.205612,231.862579 
z"/>
<path fill="#E8F7FD" opacity="1.000000" stroke="none" 
	d="
M190.172028,222.851837 
	C190.711624,221.038437 191.606033,219.232010 193.062805,217.178665 
	C194.387939,216.568283 195.150681,216.204803 195.938385,215.902344 
	C195.963333,215.963394 196.019653,216.082642 196.019653,216.082642 
	C194.188721,218.341354 192.357788,220.600082 190.172028,222.851837 
z"/>
<path fill="#D1F0FC" opacity="1.000000" stroke="none" 
	d="
M202.279724,207.945679 
	C203.332474,206.280975 204.739410,204.608673 206.475769,202.885620 
	C205.414749,204.535919 204.024338,206.237000 202.279724,207.945679 
z"/>
<path fill="#D1F0FC" opacity="1.000000" stroke="none" 
	d="
M195.806503,213.940826 
	C196.293793,213.609833 196.781082,213.278824 197.564911,212.907990 
	C197.438080,213.825851 197.014694,214.783569 196.305481,215.911957 
	C196.019653,216.082642 195.963333,215.963394 195.951782,215.586060 
	C195.895676,214.786102 195.851089,214.363464 195.806503,213.940826 
z"/>
<path fill="#D1F0FC" opacity="1.000000" stroke="none" 
	d="
M207.191772,202.830292 
	C207.342438,201.934540 207.856842,201.059372 208.672882,200.072525 
	C208.501495,200.924179 208.028519,201.887527 207.191772,202.830292 
z"/>
<path fill="#D1F0FC" opacity="1.000000" stroke="none" 
	d="
M198.219452,212.865967 
	C198.322723,212.223267 198.775360,211.580536 199.531876,210.854431 
	C199.413437,211.469376 198.991135,212.167664 198.219452,212.865967 
z"/>
<path fill="#D1F0FC" opacity="1.000000" stroke="none" 
	d="
M219.311890,187.996002 
	C219.424347,187.335373 219.873398,186.686722 220.626404,185.942169 
	C220.950912,186.320572 220.971451,186.794876 220.993240,187.623856 
	C220.545822,187.988358 220.097153,187.998169 219.311890,187.996002 
z"/>
<path fill="#E3F5FC" opacity="1.000000" stroke="none" 
	d="
M236.109772,168.885300 
	C236.285431,168.266556 236.811966,167.658035 237.647629,166.993820 
	C237.458038,167.590576 236.959351,168.243057 236.109772,168.885300 
z"/>
<path fill="#E3F5FC" opacity="1.000000" stroke="none" 
	d="
M261.316193,139.962097 
	C261.434967,139.349808 261.882996,138.702927 262.641907,137.995880 
	C262.517029,138.599655 262.081238,139.263580 261.316193,139.962097 
z"/>
<path fill="#E3F5FC" opacity="1.000000" stroke="none" 
	d="
M263.271790,137.932220 
	C263.384247,137.302048 263.833282,136.650162 264.597229,135.945297 
	C264.477539,136.565063 264.042938,137.237793 263.271790,137.932220 
z"/>
<path fill="#E3F5FC" opacity="1.000000" stroke="none" 
	d="
M265.233765,135.904083 
	C265.350677,135.272949 265.809357,134.633530 266.577942,133.933746 
	C266.450378,134.547516 266.012939,135.221664 265.233765,135.904083 
z"/>
<path fill="#88DFFE" opacity="1.000000" stroke="none" 
	d="
M217.202911,83.844559 
	C216.949127,84.009285 216.468094,84.009117 216.227448,84.006004 
	C216.443512,83.362381 216.900238,82.721870 217.677216,82.039894 
	C217.817215,82.558899 217.636948,83.119362 217.202911,83.844559 
z"/>
<path fill="#D0F9FF" opacity="1.000000" stroke="none" 
	d="
M111.078125,17.010185 
	C110.255501,15.560664 109.791962,14.287601 109.328423,13.014538 
	C110.531799,12.688210 111.771843,11.996849 112.930748,12.113268 
	C115.186066,12.339830 117.395889,13.019249 120.289932,13.657935 
	C118.198189,18.058771 115.295998,18.751707 111.078125,17.010185 
z"/>
<path fill="#D0F9FF" opacity="1.000000" stroke="none" 
	d="
M120.335281,35.631844 
	C121.856247,35.326412 123.210930,35.377213 124.565628,35.428017 
	C124.314903,36.770962 124.426834,38.362232 123.720764,39.393379 
	C122.857254,40.654469 121.307991,41.445984 119.547783,42.843449 
	C119.781860,40.260288 119.975433,38.124184 120.335281,35.631844 
z"/>
<path fill="#D0F9FF" opacity="1.000000" stroke="none" 
	d="
M107.809731,47.281677 
	C107.307121,48.321712 106.708740,49.007668 106.110352,49.693626 
	C105.802750,48.900185 105.495140,48.106750 105.187531,47.313316 
	C106.029671,47.184746 106.871819,47.056175 107.809731,47.281677 
z"/>
<path fill="#D0F9FF" opacity="1.000000" stroke="none" 
	d="
M113.857910,47.825748 
	C114.591774,47.853527 115.111870,48.097649 115.631966,48.341770 
	C115.216507,48.761143 114.801048,49.180515 114.385590,49.599892 
	C114.138443,49.080627 113.891296,48.561359 113.857910,47.825748 
z"/>
<path fill="#D0F9FF" opacity="1.000000" stroke="none" 
	d="
M106.400223,32.954605 
	C106.792702,32.715298 107.183060,32.717102 107.571228,32.747135 
	C107.582115,32.747978 107.569664,33.050545 107.568100,33.212418 
	C107.178001,33.208164 106.787895,33.203911 106.400223,32.954605 
z"/>
<path fill="#9FE9FE" opacity="1.000000" stroke="none" 
	d="
M287.884338,52.763306 
	C287.164734,52.480507 286.342682,51.917210 285.755768,51.178635 
	C286.587891,51.496510 287.184906,51.989658 287.884338,52.763306 
z"/>
<path fill="#9FE9FE" opacity="1.000000" stroke="none" 
	d="
M291.881470,56.726173 
	C291.282928,56.595394 290.674011,56.139683 290.017700,55.378666 
	C290.603943,55.515987 291.237518,55.958614 291.881470,56.726173 
z"/>
<path fill="#BDEEFC" opacity="1.000000" stroke="none" 
	d="
M293.958801,58.684036 
	C293.350494,58.557499 292.709808,58.106537 292.023315,57.338951 
	C292.627136,57.468094 293.276764,57.913849 293.958801,58.684036 
z"/>
<path fill="#BDEEFC" opacity="1.000000" stroke="none" 
	d="
M295.936096,60.721252 
	C295.327301,60.581223 294.696655,60.113899 294.028748,59.327660 
	C294.632385,59.470486 295.273315,59.932224 295.936096,60.721252 
z"/>
<path fill="#88DFFE" opacity="1.000000" stroke="none" 
	d="
M206.394226,113.966782 
	C207.118744,111.072502 208.193222,108.106339 209.630585,105.067856 
	C208.910370,107.961975 207.827271,110.928436 206.394226,113.966782 
z"/>
<path fill="#8AD7FA" opacity="1.000000" stroke="none" 
	d="
M162.399933,240.962372 
	C163.127518,238.395081 164.200775,235.753723 165.622925,233.045105 
	C164.896423,235.614670 163.821014,238.251480 162.399933,240.962372 
z"/>
<path fill="#8AD7FA" opacity="1.000000" stroke="none" 
	d="
M175.274109,205.844391 
	C175.410172,204.691116 175.859161,203.383286 176.624649,202.016861 
	C176.489777,203.202133 176.038406,204.445984 175.274109,205.844391 
z"/>
<path fill="#8AD7FA" opacity="1.000000" stroke="none" 
	d="
M195.488831,213.996277 
	C195.851089,214.363464 195.895676,214.786102 195.926849,215.525024 
	C195.150681,216.204803 194.387939,216.568283 193.305756,216.941193 
	C193.714615,215.984344 194.442886,215.018051 195.488831,213.996277 
z"/>
<path fill="#88DFFE" opacity="1.000000" stroke="none" 
	d="
M214.401398,90.003983 
	C214.798798,89.057159 215.529877,88.056534 216.594177,87.004898 
	C216.196625,87.952652 215.465851,88.951416 214.401398,90.003983 
z"/>
<path fill="#8AD7FA" opacity="1.000000" stroke="none" 
	d="
M166.390045,228.990295 
	C166.786804,228.042557 167.519592,227.047150 168.582428,225.995117 
	C168.183670,226.939880 167.454865,227.941254 166.390045,228.990295 
z"/>
<path fill="#8AD7FA" opacity="1.000000" stroke="none" 
	d="
M169.216614,222.835052 
	C169.111237,222.351013 169.257965,221.701950 169.693253,221.019135 
	C169.810791,221.546936 169.639755,222.108490 169.216614,222.835052 
z"/>
<path fill="#88DFFE" opacity="1.000000" stroke="none" 
	d="
M212.373871,95.992905 
	C212.487427,95.394875 212.914764,94.737953 213.663361,94.034775 
	C213.552292,94.637032 213.119980,95.285522 212.373871,95.992905 
z"/>
<path fill="#8AD7FA" opacity="1.000000" stroke="none" 
	d="
M173.341644,209.966339 
	C173.449860,209.365463 173.878098,208.716919 174.618195,208.008438 
	C174.507248,208.605225 174.084457,209.261948 173.341644,209.966339 
z"/>
</svg>