<?xml version="1.0" encoding="UTF-8" standalone="no"?>
<svg
   width="1200"
   height="1327.965"
   viewBox="0 0 1200 1327.965"
   version="1.1"
   id="svg188"
   sodipodi:docname="roadmap.svg"
   inkscape:version="1.2.2 (732a01da63, 2022-12-09)"
   xmlns:inkscape="http://www.inkscape.org/namespaces/inkscape"
   xmlns:sodipodi="http://sodipodi.sourceforge.net/DTD/sodipodi-0.dtd"
   xmlns:xlink="http://www.w3.org/1999/xlink"
   xmlns="http://www.w3.org/2000/svg"
   xmlns:svg="http://www.w3.org/2000/svg">
  <sodipodi:namedview
     id="namedview190"
     pagecolor="#ffffff"
     bordercolor="#000000"
     borderopacity="0.25"
     inkscape:showpageshadow="2"
     inkscape:pageopacity="0.0"
     inkscape:pagecheckerboard="0"
     inkscape:deskcolor="#d1d1d1"
     showgrid="false"
     inkscape:zoom="1.4142136"
     inkscape:cx="501.33869"
     inkscape:cy="832.97177"
     inkscape:window-width="3360"
     inkscape:window-height="1766"
     inkscape:window-x="4468"
     inkscape:window-y="-12"
     inkscape:window-maximized="1"
     inkscape:current-layer="roadmap-2" />
  <defs
     id="defs24">
    <linearGradient
       id="linearGradient1068"
       x1="0.738"
       x2="0.5"
       y2="1"
       gradientUnits="objectBoundingBox">
      <stop
         offset="0"
         stop-color="#9f4ce9"
         id="stop1064" />
      <stop
         offset="1"
         stop-color="#2adbef"
         id="stop1066" />
    </linearGradient>
    <linearGradient
       id="linearGradient1062"
       x1="0.738"
       x2="0.5"
       y2="1"
       gradientUnits="objectBoundingBox">
      <stop
         offset="0"
         stop-color="#9f4ce9"
         id="stop1058" />
      <stop
         offset="1"
         stop-color="#2adbef"
         id="stop1060" />
    </linearGradient>
    <linearGradient
       id="linear-gradient"
       x1="0.738"
       x2="0.5"
       y2="1"
       gradientUnits="objectBoundingBox"
       xlink:href="#linearGradient1068">
      <stop
         offset="0"
         stop-color="#9f4ce9"
         id="stop2" />
      <stop
         offset="1"
         stop-color="#2adbef"
         id="stop4" />
    </linearGradient>
    <linearGradient
       id="linear-gradient-27"
       x1="25.729361"
       x2="25.729361"
       y2="51.458721"
       gradientUnits="userSpaceOnUse"
       gradientTransform="matrix(0.0388661,0,0,25.729361,976,3713)"
       y1="0">
      <stop
         offset="0"
         stop-color="#2ed6ef"
         id="stop7" />
      <stop
         offset="0.345"
         stop-color="#9d4df1"
         id="stop9" />
      <stop
         offset="0.69418609"
         stop-color="#2b39f5"
         id="stop11" />
      <stop
         offset="0.89081883"
         stop-color="#f7447d"
         id="stop13" />
    </linearGradient>
    <linearGradient
       id="linear-gradient-28"
       x1="0.949"
       x2="0"
       y2="1"
       gradientUnits="objectBoundingBox">
      <stop
         offset="0"
         stop-color="#2ed6ef"
         id="stop16" />
      <stop
         offset="1"
         stop-color="#9d4df1"
         id="stop18" />
    </linearGradient>
    <linearGradient
       id="linear-gradient-29"
       x1="364.0026"
       y1="102.28209"
       xlink:href="#linear-gradient-28"
       gradientTransform="matrix(1.5159416,0,0,0.75993129,355,4686.3029)"
       x2="381.17366"
       y2="90.956494"
       gradientUnits="userSpaceOnUse" />
    <linearGradient
       id="linear-gradient-30"
       x1="36.930193"
       x2="613.62523"
       xlink:href="#linear-gradient-28"
       gradientTransform="matrix(0.90256394,0,0,0.74137624,1023.164,3709.0349)"
       y1="-5.6410246e-08"
       y2="-5.6410246e-08"
       gradientUnits="userSpaceOnUse" />
    <linearGradient
       id="linear-gradient-31"
       x1="21.714995"
       x2="443.01748"
       xlink:href="#linear-gradient-28"
       gradientTransform="matrix(1.2315545,0,0,0.70431581,1023.164,4447.361)"
       y1="-7.6972157e-08"
       y2="-7.6972157e-08"
       gradientUnits="userSpaceOnUse" />
    <linearGradient
       inkscape:collect="always"
       xlink:href="#linear-gradient"
       id="linearGradient500"
       gradientUnits="userSpaceOnUse"
       x1="10.231569"
       x2="6.9328872"
       y2="13.86001"
       gradientTransform="matrix(0,-1.0533466,0.94935509,0,-3462.499,5599.842)"
       y1="-5.6313353e-07" />
    <linearGradient
       inkscape:collect="always"
       xlink:href="#linear-gradient"
       id="linearGradient502"
       gradientUnits="userSpaceOnUse"
       x1="10.231569"
       x2="6.9328872"
       y2="13.86001"
       gradientTransform="matrix(0,-1.0533466,0.94935509,0,-3462.499,5639.235)"
       y1="-5.6313353e-07" />
    <linearGradient
       inkscape:collect="always"
       xlink:href="#linear-gradient"
       id="linearGradient506"
       gradientUnits="userSpaceOnUse"
       x1="10.231569"
       x2="6.9328872"
       y2="13.86001"
       gradientTransform="matrix(0,-1.0533466,0.94935509,0,-3462.499,5687.791)"
       y1="-5.6313353e-07" />
    <linearGradient
       inkscape:collect="always"
       xlink:href="#linear-gradient"
       id="linearGradient508"
       gradientUnits="userSpaceOnUse"
       x1="10.231569"
       x2="6.9328872"
       y2="13.86001"
       gradientTransform="matrix(0,-1.0533466,0.94935509,0,-3462.499,5728.699)"
       y1="-5.6313353e-07" />
    <linearGradient
       inkscape:collect="always"
       xlink:href="#linear-gradient"
       id="linearGradient510"
       gradientUnits="userSpaceOnUse"
       x1="10.231569"
       x2="6.9328872"
       y2="13.86001"
       gradientTransform="matrix(0,-1.0533466,0.94935509,0,-3462.499,5769.153)"
       y1="-5.6313353e-07" />
    <linearGradient
       inkscape:collect="always"
       xlink:href="#linear-gradient"
       id="linearGradient512"
       gradientUnits="userSpaceOnUse"
       x1="10.231569"
       x2="6.9328872"
       y2="13.86001"
       gradientTransform="matrix(0,-1.0533466,0.94935509,0,-3462.499,5807.607)"
       y1="-5.6313353e-07" />
    <linearGradient
       inkscape:collect="always"
       xlink:href="#linear-gradient"
       id="linearGradient2208"
       gradientUnits="userSpaceOnUse"
       x1="10.231569"
       x2="6.9328872"
       y2="13.86001"
       gradientTransform="scale(1.0533466,0.94935509)"
       y1="-5.6313353e-07" />
    <linearGradient
       inkscape:collect="always"
       xlink:href="#linear-gradient"
       id="linearGradient2210"
       gradientUnits="userSpaceOnUse"
       x1="10.231569"
       x2="6.9328872"
       y2="13.86001"
       gradientTransform="scale(1.0533466,0.94935509)"
       y1="-5.6313353e-07" />
    <linearGradient
       inkscape:collect="always"
       xlink:href="#linear-gradient"
       id="linearGradient2212"
       gradientUnits="userSpaceOnUse"
       x1="10.231569"
       x2="6.9328872"
       y2="13.86001"
       gradientTransform="scale(1.0533466,0.94935509)"
       y1="-5.6313353e-07" />
    <linearGradient
       id="linear-gradient-9"
       x1="0.73799998"
       x2="0.5"
       y2="1"
       gradientUnits="objectBoundingBox">
      <stop
         offset="0"
         stop-color="#9f4ce9"
         id="stop2-9" />
      <stop
         offset="1"
         stop-color="#2adbef"
         id="stop4-5" />
    </linearGradient>
    <linearGradient
       inkscape:collect="always"
       xlink:href="#linear-gradient"
       id="linearGradient2250"
       gradientUnits="userSpaceOnUse"
       gradientTransform="matrix(0,-1.0533466,0.94935509,0,-4105.579,6660.2148)"
       x1="10.231569"
       y1="-5.6313353e-07"
       x2="6.9328872"
       y2="13.86001" />
    <linearGradient
       inkscape:collect="always"
       xlink:href="#linear-gradient"
       id="linearGradient2355"
       gradientUnits="userSpaceOnUse"
       x1="10.231569"
       x2="6.9328872"
       y2="13.86001"
       gradientTransform="matrix(0,-1.0533466,0.94935509,0,-3462.499,6376.861)"
       y1="-5.6313353e-07" />
    <linearGradient
       inkscape:collect="always"
       xlink:href="#linear-gradient"
       id="linearGradient2357"
       gradientUnits="userSpaceOnUse"
       x1="10.231569"
       x2="6.9328872"
       y2="13.86001"
       gradientTransform="matrix(0,-1.0533466,0.94935509,0,-3462.499,6331.407)"
       y1="-5.6313353e-07" />
    <linearGradient
       inkscape:collect="always"
       xlink:href="#linear-gradient"
       id="linearGradient2359"
       gradientUnits="userSpaceOnUse"
       x1="10.231569"
       x2="6.9328872"
       y2="13.86001"
       gradientTransform="matrix(0,-1.0533466,0.94935509,0,-4107,6105.699)"
       y1="-5.6313353e-07" />
    <linearGradient
       inkscape:collect="always"
       xlink:href="#linear-gradient-28"
       id="linearGradient2361"
       gradientUnits="userSpaceOnUse"
       x1="474.59581"
       x2="20.725036"
       y2="478.26215"
       gradientTransform="matrix(1.1580197,0,0,0.7715434,353,3989.049)"
       y1="0" />
  </defs>
  <g
     id="roadmap"
     transform="translate(-377,-3709.035)"
     style="display:inline"
     inkscape:highlight-color="#aaaaaa">
    <g
       id="roadmap-2"
       data-name="roadmap"
       inkscape:label="roadmap-2">
      <g
         id="_40505"
         data-name=" 40505"
         transform="translate(4513,-1666.877)"
         inkscape:label="_40505">
        <text
           id="_2023_Q4"
           data-name="2023 Q4"
           fill="#ffffff"
           font-size="20px"
           font-family="TitilliumWeb-Bold, 'Titillium Web'"
           font-weight="700"
           inkscape:label="_2024_Q1"
           style="font-style:normal;font-variant:normal;font-weight:bold;font-stretch:normal;font-size:20px;font-family:TitilliumWeb-Bold, 'Titillium Web';-inkscape-font-specification:'TitilliumWeb-Bold, Titillium Web, Bold';font-variant-ligatures:normal;font-variant-caps:normal;font-variant-numeric:normal;font-variant-east-asian:normal;fill:#ffffff"
           x="-4106.125"
           y="6470.4141"><tspan
             sodipodi:role="line"
             id="tspan3551"
             x="-4106.125"
             y="6470.4141">PHASE 4</tspan></text>
        <text
           id="Cross-chain_of_entire_Gerobi_Ecosystem"
           data-name="Cross-chain of entire Gerobi Ecosystem"
           transform="translate(-4078,6514.062)"
           fill="rgba(255,255,255,0.8)"
           font-size="18px"
           font-family="TitilliumWeb-Regular, 'Titillium Web'"
           inkscape:label="text0404"><tspan
             x="0"
             y="20"
             id="tspan29">Ecological application moved in</tspan></text>
        <text
           id="Automated_GRB_buyback_burn_from_fee_feature"
           data-name="Automated $GRB buyback &amp; burn from fee feature"
           transform="translate(-4078,6557.062)"
           fill="rgba(255,255,255,0.8)"
           font-size="18px"
           font-family="TitilliumWeb-Regular, 'Titillium Web'"
           inkscape:label="text0405"><tspan
             x="0"
             y="20"
             id="tspan32">Introduce proof of failure</tspan></text>
        <text
           id="CEX_listing"
           data-name="CEX listing"
           transform="translate(-4078,6600.062)"
           fill="rgba(255,255,255,0.8)"
           font-size="18px"
           font-family="TitilliumWeb-Regular, 'Titillium Web'"
           inkscape:label="text0406"><tspan
             x="0"
             y="20"
             id="tspan35">JEWEL Foundation</tspan></text>
        <text
           id="CEX_listing-5"
           data-name="CEX listing"
           fill="rgba(255,255,255,0.8)"
           font-size="18px"
           font-family="TitilliumWeb-Regular, 'Titillium Web'"
           style="display:inline"
           x="-4077.6101"
           y="6638.0459"
           inkscape:label="text0407"><tspan
             x="-4077.6101"
             y="6658.0459"
             id="tspan35-7">JEWEL DAO Governance</tspan></text>
        <rect
           id="rectangle"
           width="31.464001"
           height="3.293"
           transform="translate(-4107,6486.677)"
           fill="#f7447d"
           x="0"
           y="0" />
        <path
           id="arrow"
           d="M 8.963,12.2 14.344,2.877 A 1.916,1.916 0 0 0 12.685,0 H 1.919 A 1.917,1.917 0 0 0 0.259,2.874 L 5.642,12.2 a 1.918,1.918 0 0 0 3.321,0 z"
           transform="rotate(-90,1213.758,5320.758)"
           fill="url(#linear-gradient)"
           style="fill:url(#linearGradient2208)" />
        <path
           id="arrow-2"
           data-name="arrow"
           d="M 8.963,12.2 14.344,2.877 A 1.916,1.916 0 0 0 12.685,0 H 1.919 A 1.917,1.917 0 0 0 0.259,2.874 L 5.642,12.2 a 1.918,1.918 0 0 0 3.321,0 z"
           transform="rotate(-90,1234.485,5341.485)"
           fill="url(#linear-gradient)"
           style="fill:url(#linearGradient2210)" />
        <path
           id="arrow-3"
           data-name="arrow"
           d="M 8.963,12.2 14.344,2.877 A 1.916,1.916 0 0 0 12.685,0 H 1.919 A 1.917,1.917 0 0 0 0.259,2.874 L 5.642,12.2 a 1.918,1.918 0 0 0 3.321,0 z"
           transform="rotate(-90,1257.1815,5364.1815)"
           fill="url(#linear-gradient)"
           style="fill:url(#linearGradient2212)" />
        <path
           id="arrow-3-4"
           data-name="arrow"
           d="m -4093.379,6651.2518 -9.323,-5.381 a 1.916,1.916 0 0 0 -2.877,1.659 v 10.766 a 1.917,1.917 0 0 0 2.874,1.66 l 9.326,-5.383 a 1.918,1.918 0 0 0 0,-3.321 z"
           fill="url(#linear-gradient)"
           style="display:inline;fill:url(#linearGradient2250)" />
      </g>
      <g
         id="_40503"
         data-name=" 40503"
         transform="translate(4513,-1789.217)">
        <text
           id="_2023_Q2"
           data-name="2023 Q2"
           fill="#ffffff"
           font-size="20px"
           font-family="TitilliumWeb-Bold, 'Titillium Web'"
           font-weight="700"
           inkscape:label="_2023_Q3"
           style="font-style:normal;font-variant:normal;font-weight:bold;font-stretch:normal;font-size:20px;font-family:TitilliumWeb-Bold, 'Titillium Web';-inkscape-font-specification:'TitilliumWeb-Bold, Titillium Web, Bold';font-variant-ligatures:normal;font-variant-caps:normal;font-variant-numeric:normal;font-variant-east-asian:normal;fill:#ffffff"
           x="-4108.2461"
           y="5820.9727"><tspan
             sodipodi:role="line"
             id="tspan1094">PHASE 2</tspan></text>
        <text
           id="Gerobi_s_Options_Vaults_testing_audit_completion"
           data-name="Gerobi’s Options Vaults testing &amp; audit completion"
           transform="translate(-4078,5866.035)"
           fill="rgba(255,255,255,0.8)"
           font-size="18px"
           font-family="TitilliumWeb-Regular, 'Titillium Web'"
           inkscape:label="text0307"><tspan
             x="0"
             y="20"
             id="tspan46">Release the decentralized protocol mechanism</tspan></text>
        <text
           id="Options_Vaults_live"
           data-name="Options Vaults live"
           transform="translate(-4078,5909.035)"
           fill="rgba(255,255,255,0.8)"
           font-size="18px"
           font-family="TitilliumWeb-Regular, 'Titillium Web'"
           inkscape:label="text0305"><tspan
             x="0"
             y="20"
             id="tspan49">Node configurator</tspan></text>
        <text
           id="Strategies_contract_expansion"
           data-name="Strategies &amp; contract expansion"
           transform="translate(-4078,5952.035)"
           fill="rgba(255,255,255,0.8)"
           font-size="18px"
           font-family="TitilliumWeb-Regular, 'Titillium Web'"
           inkscape:label="text0305"><tspan
             x="0"
             y="20"
             id="tspan52">Start multi-signature verification</tspan></text>
        <text
           id="Gerobi_DAO"
           data-name="Gerobi DAO"
           transform="translate(-4078,5995.035)"
           fill="rgba(255,255,255,0.8)"
           font-size="18px"
           font-family="TitilliumWeb-Regular, 'Titillium Web'"
           inkscape:label="text0304"><tspan
             x="0"
             y="20"
             id="tspan55">JEWEL token participates in ecological governance</tspan></text>
        <text
           id="New_strategies_yield_generator_launch_after_DAO_s_approvement"
           data-name="New strategies / yield generator launch after DAO’s approvement"
           fill="rgba(255,255,255,0.8)"
           font-size="18px"
           font-family="TitilliumWeb-Regular, 'Titillium Web'"
           inkscape:label="text0303"
           x="-4078"
           y="6055.251">Launch the cross-chain bridge beta</text>
        <text
           id="External_insurance_support"
           data-name="External insurance support"
           fill="rgba(255,255,255,0.8)"
           font-size="18px"
           font-family="TitilliumWeb-Regular, 'Titillium Web'"
           inkscape:label="text0302"
           x="-4078"
           y="6083.251"><tspan
             x="-4078"
             y="6103.251"
             id="tspan63">JEWEL testnet released</tspan></text>
        <text
           id="Partnership_risk_model_construction"
           data-name="Partnership risk model construction"
           transform="translate(-4078,6141.251)"
           fill="rgba(255,255,255,0.8)"
           font-size="18px"
           font-family="TitilliumWeb-Regular, 'Titillium Web'"
           inkscape:label="text0301"><tspan
             x="0"
             y="20"
             id="tspan66" /></text>
        <rect
           id="rectangle-2"
           data-name="rectangle"
           width="31.464001"
           height="3.293"
           transform="translate(-4107,5838.65)"
           fill="#9d4df1"
           x="0"
           y="0" />
        <path
           id="arrow-4"
           data-name="arrow"
           d="M 8.963,12.2 14.344,2.877 A 1.916,1.916 0 0 0 12.685,0 H 1.919 A 1.917,1.917 0 0 0 0.259,2.874 L 5.642,12.2 a 1.918,1.918 0 0 0 3.321,0 z"
           transform="rotate(-90,889.7445,4996.7445)"
           fill="url(#linear-gradient)" />
        <path
           id="arrow-5"
           data-name="arrow"
           d="M 8.963,12.2 14.344,2.877 A 1.916,1.916 0 0 0 12.685,0 H 1.919 A 1.917,1.917 0 0 0 0.259,2.874 L 5.642,12.2 a 1.918,1.918 0 0 0 3.321,0 z"
           transform="rotate(-90,910.4715,5017.4715)"
           fill="url(#linear-gradient)" />
        <path
           id="arrow-6"
           data-name="arrow"
           d="M 8.963,12.2 14.344,2.877 A 1.916,1.916 0 0 0 12.685,0 H 1.919 A 1.917,1.917 0 0 0 0.259,2.874 L 5.642,12.2 a 1.918,1.918 0 0 0 3.321,0 z"
           transform="rotate(-90,933.168,5040.168)"
           fill="url(#linear-gradient)" />
        <path
           id="arrow-7"
           data-name="arrow"
           d="M 8.963,12.2 14.344,2.877 A 1.916,1.916 0 0 0 12.685,0 H 1.919 A 1.917,1.917 0 0 0 0.259,2.874 L 5.642,12.2 a 1.918,1.918 0 0 0 3.321,0 z"
           transform="rotate(-90,953.8955,5060.8955)"
           fill="url(#linear-gradient)" />
        <path
           id="arrow-8"
           data-name="arrow"
           d="M 8.963,12.2 14.344,2.877 A 1.916,1.916 0 0 0 12.685,0 H 1.919 A 1.917,1.917 0 0 0 0.259,2.874 L 5.642,12.2 a 1.918,1.918 0 0 0 3.321,0 z"
           transform="rotate(-90,975.6225,5082.6225)"
           fill="url(#linear-gradient)" />
        <path
           id="arrow-9"
           data-name="arrow"
           d="m -4094.8,6096.736 -9.323,-5.381 a 1.916,1.916 0 0 0 -2.877,1.659 v 10.766 a 1.917,1.917 0 0 0 2.874,1.66 l 9.326,-5.383 a 1.918,1.918 0 0 0 0,-3.321 z"
           fill="url(#linear-gradient)"
           style="fill:url(#linearGradient2359)" />
      </g>
      <g
         id="_40504"
         data-name="40504"
         transform="translate(4539.664,-1733.125)">
        <text
           fill="#ffffff"
           font-size="20px"
           font-family="TitilliumWeb-Bold, 'Titillium Web'"
           font-weight="700"
           id="text80"
           style="font-style:normal;font-variant:normal;font-weight:bold;font-stretch:normal;font-size:20px;font-family:TitilliumWeb-Bold, 'Titillium Web';-inkscape-font-specification:'TitilliumWeb-Bold, Titillium Web, Bold';font-variant-ligatures:normal;font-variant-caps:normal;font-variant-numeric:normal;font-variant-east-asian:normal;fill:#ffffff"
           x="-3460.5"
           y="5491.2861"><tspan
             sodipodi:role="line"
             id="tspan1092">PHASE 1</tspan></text>
        <text
           transform="translate(-3433,5534)"
           fill="rgba(255,255,255,0.8)"
           font-size="18px"
           font-family="TitilliumWeb-Regular, 'Titillium Web'"
           id="text84"><tspan
             x="0"
             y="20"
             id="tspan82">Announcing the whitepaper</tspan></text>
        <text
           fill="rgba(255,255,255,0.8)"
           font-size="18px"
           font-family="TitilliumWeb-Regular, 'Titillium Web'"
           id="text88"
           inkscape:label="text88"
           x="-3433"
           y="5577"><tspan
             x="-3433"
             y="5597"
             id="tspan86">JEWEL web3 framework deployment</tspan></text>
        <text
           fill="rgba(255,255,255,0.8)"
           font-size="18px"
           font-family="TitilliumWeb-Regular, 'Titillium Web'"
           id="text92"
           x="-3433"
           y="5617"><tspan
             x="-3433"
             y="5637"
             id="tspan90">Global Marketing Campaign</tspan></text>
        <text
           fill="rgba(255,255,255,0.8)"
           font-size="18px"
           font-family="TitilliumWeb-Regular, 'Titillium Web'"
           id="text100"
           x="-3433"
           y="5686"
           style="font-style:normal;font-variant:normal;font-weight:normal;font-stretch:normal;font-size:18px;font-family:TitilliumWeb-Regular, 'Titillium Web';-inkscape-font-specification:'TitilliumWeb-Regular, Titillium Web, Normal';font-variant-ligatures:normal;font-variant-caps:normal;font-variant-numeric:normal;font-variant-east-asian:normal"><tspan
             sodipodi:role="line"
             id="tspan1325"
             x="-3433"
             y="5686">EtherScan Verification</tspan></text>
        <text
           fill="rgba(255,255,255,0.8)"
           font-size="18px"
           font-family="TitilliumWeb-Regular, 'Titillium Web'"
           id="text104"
           x="-3433"
           y="5707"><tspan
             x="-3433"
             y="5727"
             id="tspan102">Presale</tspan></text>
        <text
           fill="rgba(255,255,255,0.8)"
           font-size="18px"
           font-family="TitilliumWeb-Regular, 'Titillium Web'"
           id="text108"
           x="-3433"
           y="5748"><tspan
             x="-3433"
             y="5768"
             id="tspan106">Launch of JEWEL Rollup</tspan></text>
        <text
           fill="rgba(255,255,255,0.8)"
           font-size="18px"
           font-family="TitilliumWeb-Regular, 'Titillium Web'"
           id="text112"
           x="-3433"
           y="5788"><tspan
             x="-3433"
             y="5808"
             id="tspan110">Launch of JEWEL Validator</tspan></text>
        <rect
           id="rectangle-3"
           data-name="rectangle"
           width="31.464001"
           height="3.293"
           transform="translate(-3462.5,5507.549)"
           fill="#2ed6ef"
           x="0"
           y="0" />
        <path
           id="arrow-11"
           data-name="arrow"
           d="M 8.963,12.2 14.344,2.877 A 1.916,1.916 0 0 0 12.685,0 H 1.919 A 1.917,1.917 0 0 0 0.259,2.874 L 5.642,12.2 a 1.918,1.918 0 0 0 3.321,0 z"
           transform="rotate(-90,1046.4445,4508.9435)"
           fill="url(#linear-gradient)" />
        <path
           id="arrow-12"
           data-name="arrow"
           d="m -3450.299,5590.879 -9.323,-5.381 a 1.916,1.916 0 0 0 -2.877,1.659 v 10.766 a 1.917,1.917 0 0 0 2.874,1.66 l 9.326,-5.383 a 1.918,1.918 0 0 0 0,-3.321 z"
           fill="url(#linear-gradient)"
           style="fill:url(#linearGradient500)" />
        <path
           id="arrow-13"
           data-name="arrow"
           d="m -3450.299,5630.272 -9.323,-5.381 a 1.916,1.916 0 0 0 -2.877,1.659 v 10.766 a 1.917,1.917 0 0 0 2.874,1.66 l 9.326,-5.383 a 1.918,1.918 0 0 0 0,-3.321 z"
           fill="url(#linear-gradient)"
           style="fill:url(#linearGradient502)" />
        <path
           id="arrow-15"
           data-name="arrow"
           d="m -3450.299,5678.828 -9.323,-5.381 a 1.916,1.916 0 0 0 -2.877,1.659 v 10.766 a 1.917,1.917 0 0 0 2.874,1.66 l 9.326,-5.383 a 1.918,1.918 0 0 0 0,-3.321 z"
           fill="url(#linear-gradient)"
           style="fill:url(#linearGradient506)" />
        <path
           id="arrow-16"
           data-name="arrow"
           d="m -3450.299,5719.736 -9.323,-5.381 a 1.916,1.916 0 0 0 -2.877,1.659 v 10.766 a 1.917,1.917 0 0 0 2.874,1.66 l 9.326,-5.383 a 1.918,1.918 0 0 0 0,-3.321 z"
           fill="url(#linear-gradient)"
           style="fill:url(#linearGradient508)" />
        <path
           id="arrow-17"
           data-name="arrow"
           d="m -3450.299,5760.19 -9.323,-5.381 a 1.916,1.916 0 0 0 -2.877,1.659 v 10.766 a 1.917,1.917 0 0 0 2.874,1.66 l 9.326,-5.383 a 1.918,1.918 0 0 0 0,-3.321 z"
           fill="url(#linear-gradient)"
           style="fill:url(#linearGradient510)" />
        <path
           id="arrow-18"
           data-name="arrow"
           d="m -3450.299,5798.644 -9.323,-5.381 a 1.916,1.916 0 0 0 -2.877,1.659 v 10.766 a 1.917,1.917 0 0 0 2.874,1.66 l 9.326,-5.383 a 1.918,1.918 0 0 0 0,-3.321 z"
           fill="url(#linear-gradient)"
           style="fill:url(#linearGradient512)" />
      </g>
      <g
         id="_40508"
         data-name="40508"
         transform="translate(4539.664,-1656)">
        <path
           id="arrow-21"
           data-name="arrow"
           d="M 8.963,12.2 14.344,2.877 A 1.916,1.916 0 0 0 12.685,0 H 1.919 A 1.917,1.917 0 0 0 0.259,2.874 L 5.642,12.2 a 1.918,1.918 0 0 0 3.321,0 z"
           transform="rotate(-90,1414.727,4877.226)"
           fill="url(#linear-gradient)" />
        <g
           id="_40507"
           data-name="40507"
           inkscape:label="_40507">
          <g
             id="_40506"
             data-name="40506"
             inkscape:label="_40506">
            <text
               id="_2023_Q3"
               data-name="2023 Q3"
               transform="translate(-3462.5,6151.549)"
               fill="#ffffff"
               font-size="20px"
               font-family="TitilliumWeb-Bold, 'Titillium Web'"
               font-weight="700"
               inkscape:label="_2023_Q4"
               style="font-style:normal;font-variant:normal;font-weight:bold;font-stretch:normal;font-size:20px;font-family:TitilliumWeb-Bold, 'Titillium Web';-inkscape-font-specification:'TitilliumWeb-Bold, Titillium Web, Bold';font-variant-ligatures:normal;font-variant-caps:normal;font-variant-numeric:normal;font-variant-east-asian:normal;fill:#ffffff"><tspan
                 sodipodi:role="line"
                 id="tspan3704"
                 x="0"
                 y="0">PHASE 3</tspan></text>
            <text
               id="Lending_Leverage_Yield_Farming_launch"
               data-name="Lending &amp; Leverage Yield Farming launch"
               transform="translate(-3433.499,6195.197)"
               fill="rgba(255,255,255,0.8)"
               font-size="18px"
               font-family="TitilliumWeb-Regular, 'Titillium Web'"
               inkscape:label="text0706"><tspan
                 x="0"
                 y="20"
                 id="tspan128">API beta version open</tspan></text>
            <text
               id="Perfect_DAO_model"
               data-name="Perfect DAO model"
               transform="translate(-3433.499,6232.98)"
               fill="rgba(255,255,255,0.8)"
               font-size="18px"
               font-family="TitilliumWeb-Regular, 'Titillium Web'"
               inkscape:label="text0705"><tspan
                 x="0"
                 y="20"
                 id="tspan131">Launch a bug bounty program</tspan></text>
            <text
               id="_2nd_round_audit_completion"
               data-name="2nd round audit completion"
               fill="rgba(255,255,255,0.8)"
               font-size="18px"
               font-family="TitilliumWeb-Regular, 'Titillium Web'"
               inkscape:label="text0704"
               x="-3433.499"
               y="6272.1968"><tspan
                 x="-3433.499"
                 y="6292.1968"
                 id="tspan134">Mainnet launch</tspan></text>
            <text
               id="_1st_cross-chain_action_of_Gerobi_Yield_Gerobi_Options"
               data-name="1st cross-chain action of Gerobi Yield &amp; Gerobi Options"
               fill="rgba(255,255,255,0.8)"
               font-size="18px"
               font-family="TitilliumWeb-Regular, 'Titillium Web'"
               inkscape:label="text0703"
               x="-3433.499"
               y="6330.1968">Create smart contracts and tokens on JEWEL</text>
            <text
               id="_GRB_rewarding_to_DAO_members"
               data-name="$GRB rewarding to DAO members"
               fill="rgba(255,255,255,0.8)"
               font-size="18px"
               font-family="TitilliumWeb-Regular, 'Titillium Web'"
               inkscape:label="text0702"
               x="-3433.499"
               y="6354.1968"><tspan
                 x="-3433.499"
                 y="6374.1968"
                 id="tspan142">Minting NFTs with JEWEL</tspan></text>
            <text
               id="More_partnerships"
               data-name="More partnerships"
               transform="translate(-3433.499,6414.197)"
               fill="rgba(255,255,255,0.8)"
               font-size="18px"
               font-family="TitilliumWeb-Regular, 'Titillium Web'"
               inkscape:label="text0701"><tspan
                 x="0"
                 y="20"
                 id="tspan145" /></text>
            <rect
               id="rectangle-4"
               data-name="rectangle"
               width="31.464001"
               height="3.293"
               transform="translate(-3462.5,6167.813)"
               fill="#2b39f5"
               x="0"
               y="0" />
          </g>
          <path
             id="arrow-22"
             data-name="arrow"
             d="M 8.963,12.2 14.344,2.877 A 1.916,1.916 0 0 0 12.685,0 H 1.919 A 1.917,1.917 0 0 0 0.259,2.874 L 5.642,12.2 a 1.918,1.918 0 0 0 3.321,0 z"
             transform="rotate(-90,1377.5,4839.999)"
             fill="url(#linear-gradient)" />
          <path
             id="arrow-23"
             data-name="arrow"
             d="M 8.963,12.2 14.344,2.877 A 1.916,1.916 0 0 0 12.685,0 H 1.919 A 1.917,1.917 0 0 0 0.259,2.874 L 5.642,12.2 a 1.918,1.918 0 0 0 3.321,0 z"
             transform="rotate(-90,1396.3915,4858.8905)"
             fill="url(#linear-gradient)" />
          <path
             id="arrow-24"
             data-name="arrow"
             d="m -3450.299,6322.444 -9.323,-5.381 a 1.916,1.916 0 0 0 -2.877,1.659 v 10.766 a 1.917,1.917 0 0 0 2.874,1.66 l 9.326,-5.383 a 1.918,1.918 0 0 0 0,-3.321 z"
             fill="url(#linear-gradient)"
             style="fill:url(#linearGradient2357)" />
          <path
             id="arrow-25"
             data-name="arrow"
             d="m -3450.299,6367.898 -9.323,-5.381 a 1.916,1.916 0 0 0 -2.877,1.659 v 10.766 a 1.917,1.917 0 0 0 2.874,1.66 l 9.326,-5.383 a 1.918,1.918 0 0 0 0,-3.321 z"
             fill="url(#linear-gradient)"
             style="fill:url(#linearGradient2355)" />
        </g>
      </g>
      <path
         id="_30353"
         data-name="30353"
         d="m 976,3713 h 2 v 1324 h -2 z"
         fill="url(#linear-gradient-27)"
         style="fill:url(#linear-gradient-27)" />
      <g
         id="_40515"
         data-name="40515"
         transform="translate(4478.518,-1296.59)"
         inkscape:label="_40515">
        <circle
           id="round"
           cx="24.018"
           cy="24.018"
           transform="rotate(-47.854,3981.8543,6535.1214)"
           fill="#2ed6ef"
           r="24.018" />
        <path
           id="line"
           d="m 80.259,-424.433 a 29.821,29.821 0 0 1 -18.93,-6.761 29.853,29.853 0 0 1 -10.909,-20.246 29.857,29.857 0 0 1 6.6,-22.031 30.084,30.084 0 0 1 42.28,-4.306 v 0 a 29.851,29.851 0 0 1 10.908,20.247 29.852,29.852 0 0 1 -6.6,22.03 29.855,29.855 0 0 1 -20.246,10.909 30.786,30.786 0 0 1 -3.103,0.158 z m 0.083,-59.485 a 29.4,29.4 0 0 0 -22.85,10.828 29.254,29.254 0 0 0 -6.472,21.59 29.257,29.257 0 0 0 10.689,19.839 29.238,29.238 0 0 0 21.591,6.469 29.254,29.254 0 0 0 19.839,-10.689 29.25,29.25 0 0 0 6.47,-21.588 29.249,29.249 0 0 0 -10.689,-19.84 29.311,29.311 0 0 0 -18.579,-6.609 z"
           transform="translate(-3581.831,5554.992)"
           fill="#2ed6ef" />
        <text
           id="_01"
           data-name="01"
           transform="translate(-3512.517,5107.014)"
           fill="#ffffff"
           font-size="20px"
           font-family="TitilliumWeb-Bold, 'Titillium Web'"
           font-weight="700"><tspan
             x="0"
             y="0"
             id="tspan160">01</tspan></text>
      </g>
      <g
         id="_40516"
         data-name="40516"
         transform="translate(4478.518,-926.59)"
         inkscape:label="_40516">
        <circle
           id="round-2"
           data-name="round"
           cx="24.018"
           cy="24.018"
           transform="rotate(-47.854,3981.8543,6535.1214)"
           fill="#9d4df1"
           r="24.018" />
        <path
           id="line-2"
           data-name="line"
           d="m 80.259,-424.433 a 29.821,29.821 0 0 1 -18.93,-6.761 29.853,29.853 0 0 1 -10.909,-20.246 29.857,29.857 0 0 1 6.6,-22.031 30.084,30.084 0 0 1 42.28,-4.306 v 0 a 29.851,29.851 0 0 1 10.908,20.247 29.852,29.852 0 0 1 -6.6,22.03 29.855,29.855 0 0 1 -20.246,10.909 30.786,30.786 0 0 1 -3.103,0.158 z m 0.083,-59.485 a 29.4,29.4 0 0 0 -22.85,10.828 29.254,29.254 0 0 0 -6.472,21.59 29.257,29.257 0 0 0 10.689,19.839 29.238,29.238 0 0 0 21.591,6.469 29.254,29.254 0 0 0 19.839,-10.689 29.25,29.25 0 0 0 6.47,-21.588 29.249,29.249 0 0 0 -10.689,-19.84 29.311,29.311 0 0 0 -18.579,-6.609 z"
           transform="translate(-3581.831,5554.992)"
           fill="#9d4df1" />
        <text
           id="_02"
           data-name="02"
           transform="translate(-3512.517,5107.014)"
           fill="#ffffff"
           font-size="20px"
           font-family="TitilliumWeb-Bold, 'Titillium Web'"
           font-weight="700"><tspan
             x="0"
             y="0"
             id="tspan166">02</tspan></text>
      </g>
      <g
         id="_40517"
         data-name="40517"
         transform="translate(4478.518,-544.59)"
         inkscape:label="_40517">
        <circle
           id="round-3"
           data-name="round"
           cx="24.018"
           cy="24.018"
           transform="rotate(-47.854,3981.8543,6535.1214)"
           fill="#2b39f5"
           r="24.018" />
        <path
           id="line-3"
           data-name="line"
           d="m 80.259,-424.433 a 29.821,29.821 0 0 1 -18.93,-6.761 29.853,29.853 0 0 1 -10.909,-20.246 29.857,29.857 0 0 1 6.6,-22.031 30.084,30.084 0 0 1 42.28,-4.306 v 0 a 29.851,29.851 0 0 1 10.908,20.247 29.852,29.852 0 0 1 -6.6,22.03 29.855,29.855 0 0 1 -20.246,10.909 30.786,30.786 0 0 1 -3.103,0.158 z m 0.083,-59.485 a 29.4,29.4 0 0 0 -22.85,10.828 29.254,29.254 0 0 0 -6.472,21.59 29.257,29.257 0 0 0 10.689,19.839 29.238,29.238 0 0 0 21.591,6.469 29.254,29.254 0 0 0 19.839,-10.689 29.25,29.25 0 0 0 6.47,-21.588 29.249,29.249 0 0 0 -10.689,-19.84 29.311,29.311 0 0 0 -18.579,-6.609 z"
           transform="translate(-3581.831,5554.992)"
           fill="#2b39f5" />
        <text
           id="_03"
           data-name="03"
           transform="translate(-3512.517,5107.014)"
           fill="#ffffff"
           font-size="20px"
           font-family="TitilliumWeb-Bold, 'Titillium Web'"
           font-weight="700"><tspan
             x="0"
             y="0"
             id="tspan172">03</tspan></text>
      </g>
      <g
         id="_40518"
         data-name="40518"
         transform="translate(4478.518,-172.59)"
         inkscape:label="_40518">
        <circle
           id="round-4"
           data-name="round"
           cx="-6110.5464"
           cy="807.61438"
           transform="rotate(-47.854)"
           fill="#f7447d"
           r="24.018"
           inkscape:highlight-color="#7b8fd9" />
        <path
           id="line-4"
           data-name="line"
           d="m -3501.572,5102.559 a 29.821,29.821 0 0 1 -18.93,-6.761 29.853,29.853 0 0 1 -10.909,-20.246 29.857,29.857 0 0 1 6.6,-22.031 30.084,30.084 0 0 1 42.28,-4.306 v 0 a 29.851,29.851 0 0 1 10.908,20.247 29.852,29.852 0 0 1 -6.6,22.03 29.855,29.855 0 0 1 -20.246,10.909 30.786,30.786 0 0 1 -3.103,0.158 z m 0.083,-59.485 a 29.4,29.4 0 0 0 -22.85,10.828 29.254,29.254 0 0 0 -6.472,21.59 29.257,29.257 0 0 0 10.689,19.839 29.238,29.238 0 0 0 21.591,6.469 29.254,29.254 0 0 0 19.839,-10.689 29.25,29.25 0 0 0 6.47,-21.588 29.249,29.249 0 0 0 -10.689,-19.84 29.311,29.311 0 0 0 -18.579,-6.609 z"
           fill="#f7447d" />
        <text
           id="_04"
           data-name="04"
           fill="#ffffff"
           font-size="20px"
           font-family="TitilliumWeb-Bold, 'Titillium Web'"
           font-weight="700"
           x="-3512.5171"
           y="5081.0142"><tspan
             x="-3512.5171"
             y="5081.0142"
             id="tspan178">04</tspan></text>
      </g>
      <path
         id="_114441"
         data-name="114441"
         d="m 385,3989.9425 a 7.008,6.261385 0 0 0 -7,6.2542 v 354.7046 a 7.008,6.261385 0 0 0 7,6.2542 h 512 a 7.008,6.261385 0 0 0 7,-6.2542 V 4130.15 l 24.738,3.941 L 904,4100.1546 v -103.9579 a 7.008,6.261385 0 0 0 -7,-6.2542 H 385 m 0,-0.8935 h 512 a 8,7.1476998 0 0 1 8,7.1477 v 103.6926 l 25.837,35.4436 -25.837,-4.1162 v 219.6846 a 8,7.1476998 0 0 1 -8,7.1477 H 385 a 8,7.1476998 0 0 1 -8,-7.1477 v -354.7046 a 8,7.1476998 0 0 1 8,-7.1477 z"
         fill="url(#linear-gradient-28)"
         style="fill:url(#linearGradient2361);stroke-width:0.945231" />
      <path
         id="_114443"
         data-name="114443"
         d="m 387,4756.576 a 7.008,8.0732967 0 0 0 -7,8.0641 v 259.2026 a 7.008,8.0732967 0 0 0 7,8.0641 h 512 a 7.008,8.0732967 0 0 0 7,-8.0641 v -155.6068 l 24.738,5.0815 L 906,4829.5606 v -64.9205 a 7.008,8.0732967 0 0 0 -7,-8.0641 H 387 m 0,-1.152 h 512 a 8,9.2160921 0 0 1 8,9.2161 v 64.5783 l 25.837,45.7003 -25.837,-5.3073 v 154.2313 a 8,9.2160921 0 0 1 -8,9.2161 H 387 a 8,9.2160921 0 0 1 -8,-9.2161 v -259.2026 a 8,9.2160921 0 0 1 8,-9.2161 z"
         fill="url(#linear-gradient-29)"
         style="fill:url(#linear-gradient-29);stroke-width:1.07332" />
      <path
         id="_114442"
         data-name="114442"
         d="m 1057.001,3709.7041 a 7.008,4.6893294 0 0 0 -7,4.684 v 23.6106 l -0.1,0.1378 -19.922,27.6937 20.021,-5.5211 v 394.3728 a 7.008,4.6893294 0 0 0 7,4.684 h 512 a 7.008,4.6893294 0 0 0 7,-4.684 v -440.2938 a 7.008,4.6893294 0 0 0 -7,-4.684 h -512 m 0,-0.6691 h 512 a 8,5.3531158 0 0 1 8,5.3531 v 440.2938 a 8,5.3531158 0 0 1 -8,5.3531 h -512 a 8,5.3531158 0 0 1 -8,-5.3531 v -393.3738 l -21.055,5.8082 21.055,-29.2681 v -23.4601 a 8,5.3531158 0 0 1 8.001,-5.3531 z"
         fill="url(#linear-gradient-30)"
         style="fill:url(#linear-gradient-30);stroke-width:0.818009" />
      <path
         id="_114444"
         data-name="114444"
         d="m 1057.001,4448.2284 a 7.008,6.0787624 0 0 0 -7,6.0718 v 30.6064 l -0.1,0.1786 -19.922,35.8993 20.021,-7.157 v 240.5943 a 7.008,6.0787624 0 0 0 7,6.0718 h 512 a 7.008,6.0787624 0 0 0 7,-6.0718 v -300.1216 a 7.008,6.0787624 0 0 0 -7,-6.0718 h -512 m 0,-0.8674 h 512 a 8,6.9392265 0 0 1 8,6.9392 v 300.1216 a 8,6.9392265 0 0 1 -8,6.9392 h -512 a 8,6.9392265 0 0 1 -8,-6.9392 v -239.2993 l -21.055,7.5291 21.055,-37.9402 v -30.4112 a 8,6.9392265 0 0 1 8.001,-6.9392 z"
         fill="url(#linear-gradient-31)"
         style="fill:url(#linear-gradient-31);stroke-width:0.931345" />
    </g>
  </g>
</svg>
